<svg t="1747599697636" class="icon" viewBox="0 0 1024 1024" version="1.1" xmlns="http://www.w3.org/2000/svg" p-id="11494" width="200" height="200"><path d="M718.336 492.544c-1.536-3.072-3.072-6.144-5.632-9.216l-1.536-1.536c-0.512-0.512-1.024-1.536-1.536-2.048L377.856 160.256c-8.704-8.704-19.968-12.8-31.232-12.8-11.776 0-23.552 4.608-32.768 13.824-17.408 17.92-16.896 47.104 1.024 64.512l299.008 288.256-300.032 284.16c-18.432 17.408-18.944 46.08-1.536 64.512 17.408 18.432 46.08 18.944 64.512 1.536l334.336-316.416c14.848-13.824 17.408-35.328 9.216-52.224-1.024-1.536-1.536-2.048-2.048-3.072z" p-id="11495"></path></svg>