<svg t="1747712461462" class="icon" viewBox="0 0 1024 1024" version="1.1" xmlns="http://www.w3.org/2000/svg" p-id="5769" width="200" height="200"><path d="M121.77546434 106.89631719a90.94139124 90.94139124 0 0 1 26.70747669 23.74041438h1.48352921v-2.96705971c-7.98257219-7.68684786-13.85774482-21.33729179-26.70747539-23.74139823 17.46439445-25.62479348 43.44484162-39.31944847 44.51376904-83.09145229 3.54573515 4.58518983 3.41211938 10.38667734 5.93412203 16.32178061 10.1194458 23.60679862 24.14126298 58.2683547 54.90044638 60.83456842v1.48353048c-10.31200966 2.86488309-24.48316219 15.50633024-29.67551895 23.74139695-2.50726431 3.9760578-1.8843778 9.88168702-4.4505902 13.35373833v2.96705972c8.47184293-3.05548315 8.59072167-9.65866655 13.35275448-16.32079805 7.41961633-10.46036245 23.74139694-11.42613073 29.67650151-23.74041439 1.6014267-1.36563431 0.13361577 0.11789619 1.48353049-1.48353049-12.64242969-7.5532321-17.01933478-4.63038346-31.160032-14.83825141-13.88820141-10.03102237-32.12383517-45.68585695-35.61062222-57.8675061-0.66808014-2.32943747 1.36563431-11.66192439 1.48353051-16.3217819h-10.38569478c0.51874478 51.27906101-23.74041439 73.61061257-53.41691589 96.44617318h-1.4835305c3.39836491 2.21055874 11.87020784 0.65236055 13.35471959 1.4835305z m48.96436057-91.99459912h1.4835305v2.96705972h-1.4835305v-2.96705972z m583.42335099 748.74659283c-0.10315916 0.17782684-0.19256386 0.38611028-0.29670688 0.5639384 0.4902533 0.62288652 0.55018395 0.34189921 0.29670688-0.5639384z" fill="#1AFA29" p-id="5770"></path><path d="M119.23676089 272.26868415l-22.59681929 47.15857935-36.35140491 144.42314927-7.85976324 87.43986718s55.01834257 279.0215958 54.03587218 278.03912537c0.98247041 0.98247041 45.19363855 12.77211524 45.19363855 12.77211526s34.38646411-3.92988161 33.403995-4.91235204c0.98247041 0.98247041 37.33387532 24.56176009 36.35140492 23.57928969 0.98247041 0.98247041 29.4741121 10.80717443 29.4741121 10.80717444s42.24622734 58.94822419 41.26375693 58.94822547 48.14104975 31.43905291 48.14104975 31.43905291 7.85976322 43.22869774 6.87729283 42.24622733c0.98247041 0.98247041 43.22869774 11.78964483 42.24622863 10.80717444 0.98247041 0.98247041 39.29881613 9.82470403 38.31634572 8.84223363 0.98247041 0.98247041 0-16.70199685-0.9824704-17.68446726 0.98247041 0.98247041-28.49164169-44.21116814-29.4741121-45.19363855 0.98247041 0.98247041 16.70199685-5.89482242 15.71952645-6.87729281 0.98247041 0.98247041 22.59681927-40.28128653 21.61434887-41.26375694 0.98247041 0.98247041-13.75458564-29.4741121-14.73705604-30.4565838 0.98247041 0.98247041 19.64940805-23.57928967 18.66693765-24.56176007 0.98247041 0.98247041 17.68446725-3.92988161 17.68446726-3.92988161l8.84223363 28.49164168s-1.9649408 32.42152331-1.96494081 33.40399501 23.57928967 32.42152331 23.57928968 32.42152331 47.15857935-4.91235202 46.17610895-5.89482242c0.98247041 0.98247041-26.52670089-100.21198112-27.50917129-101.19445281 0.98247041 0.98247041 107.08927523-31.43905291 106.10680484-32.42152332 0.98247041 0.98247041 61.8956354-14.73705605 61.8956354-15.71952645s0 30.4565825-0.98247041 29.4741121c0.98247041 0.98247041-7.85976322 45.19363855-8.84223362 44.21116814 0.98247041 0.98247041 0 6.87729283-0.98247041 5.89482241 0.98247041 0.98247041 19.64940805-17.68446725 19.64940807-17.68446725s18.66693766-57.96575379 17.68446725-58.94822418c0.98247041 0.98247041 18.66693766-62.8781058 17.68446726-63.86057622 0.98247041 0.98247041-0.98247041-19.64940805-1.96494081-20.63187846 0.98247041 0.98247041-9.82470403-14.73705605-10.80717443-15.71952645 0.98247041 0.98247041 9.82470403-2.94741121 8.84223362-3.9298816 0.98247041 0.98247041 18.66693766-57.96575379 19.64940807-60.9131663s-5.89482242-148.35303217-5.89482243-151.30044209-35.36893452-145.40562096-34.38646411-152.28291379-45.19363855-108.07174564-46.17610894-109.05421604c0.98247041 0.98247041-124.77374249-64.8430466-125.7562129-65.82551702 0.98247041 0.98247041-223.02078281 23.57928967-224.00325322 22.59681928 0.98247041 0.98247041-177.82714426 97.26456991-177.82714425 97.26457121z" fill="#FFFFFF" p-id="5771"></path><path d="M181.13239757 932.48879895l-26.52670218 49.12352016s-9.82470403 43.22869774-10.80717443 42.24622734c0.98247041 0.98247041 91.36974749 4.91235202 92.35221919 4.91235201s10.80717443-48.14104975 9.82470402-49.12352016c0.98247041 0.98247041-46.17610894-59.9306946-47.15857935-60.91316499 0.98247041 0.98247041-17.68446725 13.75458564-17.68446725 13.75458564zM397.27588756 880.41786629l-27.50917258 133.61597612 119.86139047 62.87810581 180.77455548-23.57928967 5.89482243-44.21116814-31.43905291-63.86057621-37.33387532-29.4741121-90.38727838-51.08846226-57.9657538-28.49164169-61.89563539 44.21116814z" fill="#FFFFFF" p-id="5772"></path><path d="M189.9746312 571.92215841l31.4390529 145.40562096s21.61434886 11.78964483 20.63187847 10.80717443c0.98247041 0.98247041 18.66693766 37.33387532 18.66693765 37.33387533l64.84304661 33.4039937s33.40399372 3.92988161 32.4215233 2.94741121c0.98247041 0.98247041 72.70280982 10.80717443 72.70281113 10.80717444s90.38727709-0.98247041 92.35221791-0.98247041 113.96656806-35.36893452 112.98409765-36.35140492c0.98247041 0.98247041 43.22869774-68.77292822 44.21116815-68.77292821s19.64940805-60.91316499 20.63187845-62.87810711-2.94741121-73.68528023-2.9474112-78.59763225-0.98247041-93.3346883-1.96494081-94.31715869c0.98247041 0.98247041-6.87729283-68.77292822-7.85976322-69.75539992 0.98247041 0.98247041-40.28128653-79.58010266-41.26375693-80.56257306 0.98247041 0.98247041-55.01834257-62.8781058-56.00081299-63.86057621 0.98247041 0.98247041-149.33550257-15.71952645-150.31797298-16.70199816 0.98247041 0.98247041-131.65103532 29.4741121-132.63350572 28.491643 0.98247041 0.98247041-38.31634572 70.73786902-38.31634571 70.73786902s-24.56176009 21.61434886-25.54423049 20.63187847c0.98247041 0.98247041-40.28128653 185.6869075-40.28128653 185.6869075l-13.75458564 26.52670088z" fill="#FFE5E5" p-id="5773"></path><path d="M332.43283966 806.73258606s67.79045782-39.29881613 66.80798871-40.28128654c0.98247041 0.98247041 112.98409765 50.10599056 112.00162596 49.12352017 0.98247041 0.98247041-46.17610894 23.57928967-47.15857935 22.59681926 0.98247041 0.98247041-10.80717443 9.82470403-11.78964484 8.84223364 0.98247041 0.98247041-57.96575379-2.94741121-58.94822419-3.92988161 0.98247041 0.98247041-62.8781058-18.66693766-63.8605775-19.64940807 0.98247041 0.98247041 2.94741121-16.70199685 2.94741121-16.70199685z" fill="#FFFFFF" p-id="5774"></path><path d="M324.57307644 808.69752686l61.89563668-60.91316499s106.10680354 19.64940805 105.12433314 18.66693765c0.98247041 0.98247041 58.94822419 63.8605762 57.96575379 62.8781058 0.98247041 0.98247041-80.56257307 4.91235202-81.54504346 3.92988162 0.98247041 0.98247041-14.73705605 14.73705605-15.71952645 13.75458565 0.98247041 0.98247041-42.24622734 0.98247041-43.22869773 0 0.98247041 0.98247041-44.21116814-10.80717443-45.19363986-11.78964485 0.98247041 0.98247041-35.36893452-9.82470403-36.35140491-10.80717442 0.98247041 0.98247041-2.94741121-15.71952645-2.9474112-15.71952646z" fill="#FFE5E5" p-id="5775"></path><path d="M829.53928753 494.16355525c-12.34474026-5.37116615-32.42054075-0.96380316-78.63987822-40.06219628q-1.75076204-9.68912316-3.75401988-19.28884163h-0.69755418v-2.96705971q-2.04746892-9.69010571-4.36216808-19.28982416h-0.08842214v-0.57867544a720.88176784 720.88176784 0 0 0-34.33537645-105.74918475 721.29637091 721.29637091 0 0 0-27.98468756-59.85602692s-22.25590261-29.67551894-26.70747539-34.12709302a248.81554399 248.81554399 0 0 0-31.16003071-26.70747539c-39.21628931-28.32560421-77.91285129-47.24405514-115.73501478-56.38397687-28.19198845-6.82522131-53.66842913-7.41863377-87.54302634-7.41863379-18.54707636 0-75.83689087-3.72454583-132.05679411 13.35373835 3.72356329-0.45979669-57.14047917 21.7224208-100.89676338 54.90044638v-1.48353051h-1.48353051a72.0671514 72.0671514 0 0 1 0-11.87119038 75.52446571 75.52446571 0 0 1 8.90118173-29.67551895v-1.48352921h-2.967061a126.92240417 126.92240417 0 0 0-13.35373836 45.99729955c-1.20156194-1.48353051-0.54920139-0.37137325-1.4835292-2.96706101-2.19582171 3.56047218-1.11313851 8.26355819 0 11.86922528-2.21055874 4.00651439-8.47282418 5.86141815-11.87020783 8.90314684 1.57195265-1.39510836-24.77986906 25.03138102-35.61062222 40.06219499-60.01911674 83.34296423-65.59856634 147.6358282-74.18928801 185.47272872 2.01799358-29.31986398-3.16060742 7.41863377-5.93510456 62.4075036 1.12689298 1.67707693 1.14261254 2.44831622 1.4835305 5.84569858-1.14261254-1.66037479-1.18682363-2.43259664-1.4835305-5.48906234-2.71554775 54.90044639-2.967061 127.97659587 8.90216428 171.673932 2.46305325 9.13992177 19.64547785 95.08053886 31.160032 126.12169213 15.32653828 41.32270502 33.63683972 79.35216942 43.02925599 83.09145228-4.45059151-14.09550359-5.93510327-25.96669269-7.41863377-38.57866578 22.83555932 39.51299489 48.34147406 44.91461765 50.44887362 45.84894677-5.13438992-12.98236379-11.87119039-25.62479348-11.87119039-38.42933044 11.48507882 18.79957088 20.90697044 37.09415273 38.57866577 56.38397688 0 0-5.53425597-26.44122641-2.967061-45.99828211 11.49883329 18.3545125 11.24633877 23.19219683 25.22394617 37.09513528-8.68012636 2.18108468-29.67551894 11.39567412-40.06219627 22.25688518-3.85816161 4.03598845-11.3504805 13.05703147-13.35373834 17.80531112-0.4902533 4.94084351-0.99425977 9.89642404-1.48353052 14.83726754-8.69486339 18.79957088-22.25688518 41.30895056-23.74139692 65.28712373a68.74345418 68.74345418 0 0 1 7.41961633 0c4.00553184-19.91271068 6.38016294-26.42648939 13.35373833-40.0621963 6.48430466 1.85490377 15.59475237 2.73028477 23.74041438 5.93412203 10.38667734 4.08118207 27.5091713 24.02336679 32.64356252 34.12807427h182.50468516c-3.21955552-16.78157729-23.33956708-14.58575559-34.12610916-23.74041439-11.41041115-15.32752084-9.42189162-41.33842461-20.77335467-56.38397688v-1.48353051c14.74884541 9.6291925 26.52964854 30.8181315 48.96436056 31.15904815-3.6056658 8.53177358-4.45059151 22.76089164 1.4835305 29.67551895 3.20580106 9.67438612 14.51207047 14.30378703 25.22492744 16.32178061v4.45059151h22.25688388l4.45059151-53.41593333c5.41635978 6.61792044 17.30130335 41.54670804 17.80629366 53.41691589h23.74041438c-1.1720866-5.29748103-2.79021543-11.41041115-5.93510327-14.83825011 2.06318849-4.5399962 5.93412073-6.82522131 10.38667734-8.90216428v-1.48353051h1.4835305c1.36563431 6.70634257 1.61714627 16.32079805 1.4835305 25.2239449h86.05949455l2.96706101-4.45157407c10.01628534-4.30321998 15.74408772-7.50803847 29.6765015-14.83825011a20.43145418 20.43145418 0 0 0 4.45059021 4.45157407c-6.85469665 8.41289354-11.94389296 8.16138158-22.25590132 11.87020654 0 0.99425977-1.48353051 1.97378251-1.4835305 2.96706101h28.19100589c1.27721217-5.17761844 0.0894047-3.5162611 4.45157277-7.41765123 8.11618796-1.72227055 15.14969401-0.77222185 23.74041568 7.41765123 8.1761186-0.51874478 3.63514114-0.10315916 8.90314682 0-2.00325654-11.58725543-16.12921675-20.53461463-26.70845794-19.28884162 5.16386397-13.10124254 6.95883838-25.47545814 10.38667733-40.06219628 10.1194458 18.1324733 17.80531111 39.8548941 25.22394489 59.3510379h10.38667733c-8.97683196-17.80432857-18.79957088-38.57768323-26.70747538-56.3839769-1.85490377-4.15388464-0.59439501-8.35296289-2.96804357-11.86922528-9.49655929-8.3244714-20.20941626-17.98313795-25.22394488-20.77335337-5.63938025-10.38667734-5.93510327-23.42897179-23.74041568-32.64257995 16.32079805-28.44448295 14.57003601-48.22357787 28.19100589-60.83554966-0.34091666 27.24193975 1.11313851 39.18681526 1.48353051 53.41691587 11.21784729-4.7492622 26.88726734-52.08075691 29.6765015-71.22222699 3.827705 16.81105135-3.45829556 52.18489863-10.38667734 78.64086078 23.42897179-20.56605249 48.75705838-65.04936623 56.38397689-97.92970239 2.967061 22.50839712 2.967061 26.32234766-1.48353049 43.029256 15.54955875-13.88820141 32.55415652-77.60140737 32.64257994-96.44617318 5.46057085 5.72780238 11.18837324 18.23563376 12.16691343 21.69294677 8.47282418-16.23237591 11.12844258-41.88664343 51.63569724-66.20573327-19.7486383-23.97817316-47.25780959 2.967061-44.5127878-186.95724178 19.08055818-1.78023609 44.83994998-5.75727644 68.25320219-16.3217806z m-778.98605018 62.31908015h-1.4835305v-2.96705971h1.4835305v2.96705971z m169.15193067 440.68415525c-9.22932646-9.67438612-13.93339504-18.11675372-28.19198844-25.22492744-7.3154746-6.08345735-18.78483385-4.74827965-23.74041569-4.45059152 0.25151196-0.99425977 4.94084351-5.83194412 4.45059152-5.93608582 5.03024821-8.90216428 6.51377871-10.20786794 13.3547209-17.80531112 12.43414495-5.4900449 24.92723931 19.0668037 35.61062222 45.99729955a159.95207696 159.95207696 0 0 0-1.48353051 7.41961635z m161.73231306 11.87020784c-2.56719497-0.96478571-1.48353051-0.29670558-2.96705973-1.48353052 2.56621242 0.96380316 1.48353051 0.29572303 2.96705973 1.48353052z m-4.45157278-2.96706102c-3.39836491 1.9433259-10.19411348-0.20828345-13.35373834-2.96804355l13.35373834 2.967061z m253.72691345-68.25516728l8.90216429 7.41961634c-2.967061 14.58477305-5.31123551 29.67551894-10.38569479 45.99730084 1.33517771-12.90966123 1.32044068-42.37689673 1.4835305-53.41691718z m71.22124445-467.39064678c-1.09741892-22.53983629-0.87439845-1.64760287 0-22.25786772 15.75882476 28.8158575 27.52489086 162.47407959 8.90314682 246.30827968-3.96230332 0-3.2048185-2.967061-4.45157407-1.48353051 8.72433744-32.74770422 11.36620009-152.96376582-4.4505902-222.567864z m10.38667733-50.44985617c0.32617963 9.1851154-3.21955552 13.25057788-7.41863378 13.3547209-32.020676-121.67011806-60.09378441-145.08435281-78.64086206-204.76255289 3.44257599 0.34091666 11.32100645 4.86715839 10.38667733 2.96705972 32.27218796 81.43107749 44.35067923 70.10908848 75.67281851 188.44077227z m-59.3510379-201.79450933s-4.28848295-4.25802635-4.45157277-4.45059151c0.75650228 0.80071335 5.22281206 2.56621242 4.45059022 4.45059151z m-7.41961632 14.83825011c-6.57272681-3.35317129-18.29458186-10.07523343-22.25590262-23.74041439 13.35373835 8.5465106 19.92646514 15.89145925 22.25590262 23.74041439z m-59.3510379-40.06219499c6.98831243-6.57272681 39.21628931 27.91001988 29.67551895 40.06219499-29.17052863-8.20559265-40.26949717-34.55741437-29.67551895-40.06219499z m10.38667733 102.38127515c2.67035412 7.31449205-0.89011804 5.74155686-8.90314683 5.93412201-5.93412073-5.63741513-18.73964021-18.76911427-37.09415273-10.38569478-6.06872033-5.71306535-3.96132077-3.75401988-5.93510326-5.93510327 14.19964531-16.97414115 45.715331 2.56719497 51.93240282 10.38667604z m-1.4835305 13.35373835a35.09187743 35.09187743 0 0 1-2.96705971 7.41863377c-13.04327699-6.03826373-23.99389274-9.51031377-35.61160477-8.90216429 0-0.99425977-6.23181015-4.34743105-5.93510458-7.41863376 0-2.03371315 28.51816807-7.84993898 44.51376906 8.90216428zM466.01246385 185.53717795c14.00708015-3.0869223 19.72014553 28.82961198 13.3547209 32.64257996-8.69486339 3.6056658-24.51263623-20.77237212-13.3547209-32.64257996z m-172.11899038 23.74041568c20.25362734-5.25326867 11.75231165 33.51894353 1.48353051 34.12709171-6.75055364 0.28196857-18.75437725-9.40715459-1.48353051-34.12709171zM268.67051114 227.08290475c6.32121484 0 6.54325276-0.4902533 8.90314683 1.4835305-20.77335467 39.70654132-21.08479728 66.04362599-17.80629367 105.34833615a37.99999034 37.99999034 0 0 1-10.38569477 14.83825141c-2.2852264-25.69946115-11.66192439-67.88281018 19.28884161-121.67011806z m-37.09415401 43.02925599h10.38569477c-10.75706804 75.30242651-13.35373835 103.55336305-14.83726755 139.47641173-7.79000833 21.55933099-8.30973437 28.48869403-11.87020784 54.90044639-0.59341246-43.62365101 1.37938878-116.24000381 16.32178062-194.37685812z m-48.96534182-80.12439127c1.20156194 1.48353051 0.54920139 0.37137325 1.48353049 2.967061h-1.48353049v-2.967061z m7.41863377 63.80359322c11.73757333 5.19235547-1.69083138 33.91880828-8.90216429 31.15904945-9.9563547-0.84492442-4.45059151-35.61062222 8.90216429-31.15904945z m-41.54572679 20.77237212c6.143388 5.50478192 0.19256386 27.12404356-8.90216428 26.70845793-11.21784729-2.61140604-0.63860609-29.03789541 8.90216428-26.70845793z m-28.19198715 11.87020653c14.8382501-0.89011804 9.33346948 32.89605701-8.90216557 43.03023985-7.93836112-1.11313851-8.66538934-32.64356121 8.90216557-43.03023985z m109.90405194 607.2679084c1.27622962-9.22834391 2.79021543-13.35373835 5.83096155-24.14126299 5.93510327 9.64491209 10.38667734 12.86446761 16.32178061 17.80629368-10.38667734 0.99327722-10.63818929 1.48353051-22.15274216 6.33496931z m-3.07120273-71.62209305c6.18759907 24.02238425 8.90216428 30.31412502 14.83726755 47.48083006-14.17017126-9.92589809-24.48217963-19.28884161-53.41593332-78.63987951a692.92655433 692.92655433 0 0 1-31.15904946-99.41323287c-3.14587039-13.50307369-11.11370557-72.00820332-13.35471961-94.96264268-2.26950683 55.99786531-4.83670179 90.02081661-4.4505915 112.76795377-9.28925711-16.32178061-22.10853108-47.11043806-26.70845794-65.28712371-0.78597632 28.80013793 0 48.22357787 2.96706101 87.54302635-0.81545038 0-5.69734578-4.22855231-13.35373835-32.64257996 1.02373381 55.03307961-0.51874478 68.93601933 13.35373835 114.25148429-19.08055818-13.97760611-20.53461463-84.76852919-14.83726755-130.5732649 2.73028477 11.30626942 6.15714249 25.22394489 10.38667604 34.12709172-3.57619175-35.61062222-5.4900449-63.63952084-1.48352921-100.89774594 8.90216428 26.70845794 19.61502125 64.23391586 25.22394488 69.73771523 1.69181394-74.08514628 5.25228741-90.07976469 1.48353051-142.44249017v-19.28982418c-43.62266846 3.69507179-65.19673648-3.32369723-80.12439257-16.32079805 30.49195186-2.47877283 55.41919117-14.74884541 80.12439257-35.61160477 0.10414172-1.67609436 0.19256386-3.32369723 0.28196855-4.94084481l-0.28196855 0.4902533v-5.93510327c0.20828345 0.34091666 0.38611028 0.63762353 0.53446307 0.91959208 4.19907826-75.77696022 3.24902957-94.75435923 27.65752537-174.52309682a50.30051953 50.30051953 0 0 1 8.90314684 4.45157406c-21.84129956 77.27522775-25.13552274 101.53536948-26.70845795 178.05409495-0.54920139 27.06411292-0.10414172 61.59106938 1.48352921 86.05949454 1.48353051 21.93070425 1.48353051 47.12517508 5.93510456 71.22124575 7.64165424 41.84341492 15.63896345 89.0275381 25.22492745 117.21854399 22.41997499 65.86579916 39.85391155 90.37745284 44.51278649 96.44715572-1.73602501-12.92439825-4.06546249-27.04937589-5.93412073-45.99729955 12.90867868 23.59206159 37.42033235 75.22775883 71.22124446 97.92970239-14.48161387-41.33842461-42.74728743-115.3056747-43.03023855-152.83014878 26.01090377 71.83037648 37.36138426 132.65020786 66.77065422 178.05311111-33.38532646-5.01452863-75.39084994-71.42854661-86.05949584-96.44518934zM391.82317585 952.65302158c-19.08154074-9.51031377-58.62400967-42.76300701-65.28515861-63.80261067 0 0 9.98484618-44.26127455 13.35275578-48.9653431 1.09840148-3.44257599 1.48353051-3.30896021 2.96706101-5.93412202 29.6765015 8.44236758 56.71113908 16.20191931 91.99558167 17.80432985-1.94430845 8.02678325-8.35394544 12.58249904-11.87020784 19.28982288-10.49081905 19.9863958-14.8382501 40.50725466-23.74041569 62.3180989-2.46305325 6.06872033-6.45483061 11.02528342-7.41961632 19.28982416z m-41.54572549-145.41053373c13.3547209 1.57195265 30.43300379 1.30570366 44.51376905 4.45059151h16.3217806c3.30896021 0.78597632 15.77258051 4.45157407 17.80531112 4.45157277 7.01778647 0 16.57427642-3.30896021 22.25688517 1.4835305 3.30896021 2.16634766 0.50400775 16.20290186 5.93412071 20.77335468-1.09741892 3.44257599-1.48353051 3.30896021-2.9670597 5.93510327-21.57406802 3.75401988-84.85695134-10.00154832-102.38127645-17.80531111-1.02373381-3.81296798-0.7712393-14.92667355-1.4835305-19.28884162z m50.44887233 149.86210652v2.967061h-1.48353052c4.06546249-15.32653828 10.99384426-32.64356121 19.28884163-44.51376907 6.05398202 5.93510327-12.46361901 35.99771635-17.80531111 41.54670807z m29.67551894 17.80531109c-0.29670558 6.18759907-1.03847084 6.79574727-2.967061 10.38667735-5.72780238-0.14835279-7.53849507-0.34189921-10.38667604-2.96804228-3.66461519-3.78349393 14.59951006-33.31065879 16.3217806-40.06219627 1.79497312 3.50152407 0.32617963 27.74692878-2.96706101 32.6435612z m11.87020784-74.189288c-7.90888706-0.87538102-7.75955172-3.56145473-13.35373834-5.93510327 0.40084731-6.92936433 0.75650228-19.9863958 8.90216427-26.70845794 0 0 13.20636682 1.60240925 19.28982417 1.4835305 0.63860609 5.17860099 1.8843778 11.321989 4.45059151 14.83825011-3.39738236 9.89642404-11.87020784 10.63917185-19.28884161 16.3217806z m40.06219628 77.15634901c-9.6596491-2.49252729-14.03655421-27.46496021-14.83726884-38.57768322 9.13992177 6.36542591 11.87020784 18.60602446 19.28884161 26.70747538-0.38611028 7.56796912-1.72128799 7.53751251-4.45059022 11.87020784z m-14.83726884-69.73771393l4.45059151 1.48352921c0.93531167 3.30896021 1.09840148 3.9171097 2.96705971 5.93510455v2.96705973h-4.45059021c-2.49252729-4.9103869-3.85816161-5.39965764-2.96706101-10.38471224z m22.25590261 31.16003071h-1.4835305c-3.10067677-13.94813206-10.66864589-26.70845794-14.83726884-38.57866579v-11.87020655c-0.8016959-2.87863887-3.6056658-9.00630599-4.45157277-11.87020783-3.10165933-10.50555609-3.63514114-20.4766478-11.87020784-20.77335466l8.90216428-10.38667734c2.56719497 0.96478571 1.48353051 0.29670558 2.967061 1.4835305 6.36640847 5.10491587 3.70980881 12.65716671 7.41961634 20.77335467 6.57272681 14.37845471 12.24158109 33.51894353 16.3217806 50.44887233 2.04746892 8.48756251-2.18108468 13.4873541-2.9670597 20.77335467z m10.38667734 37.09415272c0.4902533-2.967061 0.99425977-5.93510327 1.48353051-8.90314683 1.48353051 2.07792553 1.48353051 4.86715839 1.48352922 8.90314683h-2.96705973z m4.45157277 8.90314684c1.20156194 1.73602501 1.18682363 2.47779026 1.48353051 5.934122-1.20156194-1.73504245-1.18682363-2.47779026-1.48353051-5.934122z m41.54572679-115.7350135c-1.14261254 0-3.70882626-1.48353051-5.93412201-1.4835305 3.70882626-5.44583383 6.92838178-16.8120339 8.90118173-22.25786773-0.48927074 14.42266577-1.231036 18.47339124-2.96705972 23.74041567z m50.44887232 19.2888416c-4.21479783-2.7450218-8.5769672-4.70406858-17.80531111-7.41863505 13.84300779-18.05780562 13.84300779-20.77335467 20.77237211-38.5786645 1.00899679 0 4.45157407 13.10124254-2.967061 45.99729955z m-65.28614117-90.51106989c-14.8382501 4.18434123-31.78291723 4.16960421-45.99729955 7.41863507H452.65774425c-18.77009682 2.967061-64.79687043 0.99425977-86.05949583-4.4505915-45.65540034-11.6923797-75.21302181-34.02294999-111.28442329-53.4169159-1.231036-23.28061899-8.14467945-47.06524444-13.35373704-68.25418472-5.69734578-23.17647726-1.82444716-44.37917074-7.41765253-68.25320218-13.05801402-55.71589677-12.59821862-149.07613018 1.48353052-191.40881455 7.73007767-22.55359075 11.45462222-41.307968 19.2888416-62.3180976 5.75727644 21.14276282 9.97109172 29.09684351 17.80531111 40.06219499h8.90216428c-1.97279996-4.33269403-4.33269403-12.73085184-5.93412071-34.12709171 0.7407827 3.94658374 1.48353051 7.41765122 2.12115274 10.38569477h0.84492571v2.967061h-0.16210856c2.16634766 8.99255153 4.03598845 13.65142647 6.09819438 16.32276317 18.87325599 0 71.01296099-14.70463434 71.22124444-14.8382501 3.26474915 6.17286206 35.61062222 13.72511161 37.09513529 7.41863376 2.87863887-9.94063511-19.68968892-12.58249904-25.22492745-13.35373833-5.44485126-18.977399-7.67112958-35.78844906-7.41863377-61.90349584-12.33000324-1.76549906-21.38150415 1.91385185-34.12709301 5.51951895-0.860644-1.85392121-3.21955552-5.25228741-2.96705971-7.41765122 9.70386018-4.83768435 17.52334255-9.97207427 35.61062223-7.41961634 0.81545038-2.25575236-0.43032265-2.47779026 0-5.93510456-16.03981205-3.13113338-31.16003201-2.01799358-38.57866579 10.38667735-0.95004869 1.231036-7.41863377 2.59568645-5.93510327-5.93510328 10.95061574-21.88649318 50.44887362-18.01359455 60.8345671-5.93608583-1.98753827 4.27374593-3.9760578 5.71306535-13.35373704 2.96804227 0.57965799 1.48353051-0.48927074 2.967061 0 4.4505915h8.90314682c1.00899679 5.34267466 1.0826819 5.93608582 0 11.87119039a32.95500512 32.95500512 0 0 0-7.41863506-1.4835305c-1.48353051 17.5528166 6.29075825 46.21933746 13.35373833 60.83456711 17.80531111-1.0826819 21.29209817-1.18682363 31.15904946-4.45059022-4.95558053-23.6225182-11.46935924-50.56775236-10.38667734-63.80359322 3.85816161 0.29670558 5.63938025 1.48353051 8.90314683 2.96705971 2.967061 18.6964117 7.18185884 41.23428288 11.87020784 59.35202046 0.48927074 0.54920139 48.96534311-2.967061 59.3510366-2.967061-0.7122912-21.36676583-2.7450218-70.40579408-11.87020783-106.83284922 3.85816161 0.29670558 8.0130288 2.13687361 10.38667733 2.9670597 6.24654717 31.23371712 12.31526622 69.18949639 10.38667734 102.38127645 34.80892633-0.23677493 44.02449961 1.1720866 51.93240413-1.48353051 1.76549906-7.32922909 6.14240545-20.92170747-2.96706102-60.83456709 7.71534065 20.59454528 11.18739068 53.50533803 11.86922528 63.80162811 19.28982416 2.47877283 41.54670804 6.42535658 60.83554967 8.90314683 0-39.75075238-4.27374593-52.92568133-10.38667734-91.99459912 8.44335014 1.48353051-1.02373381-0.57867543 8.90314684 1.48353051 5.37116615 22.49464267 10.38667734 45.77526164 11.87020784 93.47911217 7.79000833 0.62288652 16.4396768 4.12441058 22.25688516 1.48353049 2.77449585-11.08423151 1.0826819-30.16577094 1.48352921-41.54572678 2.7450218 4.12441058 3.2048185 27.47969724 2.96706101 43.0292573-0.11789619 0 4.86715839 3.36790831 7.41961633 0 2.8039712-3.44257599 3.16060742-8.20559265 2.96706101-14.83726884 1.92957143-0.59439501 6.00977095-0.51972734 32.64356121 71.22124442 3.27948617 23.0428615 0 68.25418474 0 75.67281851-4.02125142 17.61274724-5.14814441 41.1163867-8.90314684 57.86750739-4.09493653 18.25037077 5.50478192 36.53119687 8.90314684 48.96534312 3.19008147 11.66192439 1.72128799 37.76223285-1.48352921 48.96436055-21.96017829 76.81543105-78.74500379 110.25970691-155.79721107 132.05679411z m139.47542918 65.28614117h-5.93510328c14.4963509-36.88685183 27.77640283-60.68719686 40.06219628-161.73231305 8.90216428 5.93510327 4.95558053 3.41310193 8.90216429 5.93510328-9.24406348 56.04305893-18.4134606 108.43525846-43.02925729 155.79720977z m96.44617317-192.89136249c4.94084351 11.87020784 14.70365179 20.99539258 25.22394489 28.19198844-18.26510781 14.71937137-29.57235979 25.47545814-38.57866579 59.3510379-8.90216428-25.71419818-23.94771657-49.33573381-41.54572549-57.86750741 17.43492041-13.90293844 27.55436492-21.48466332 47.48083006-63.80261065 2.15161063 17.62748428 3.57619175 24.83881716 7.41961633 34.12709172z m-10.38667733-204.76255291c14.83726755 9.12518474 35.46226943 28.19198845 56.38397688 29.67650151-8.26552331 2.86291929-27.56910194 4.58420729-50.44985617 7.41765122-3.81198542-9.52505078-5.81622453-20.69770444-5.93412071-37.09415273z" fill="#1296DB" p-id="5776"></path><path d="M242.04556257 529.67593107s4.91235202 22.59681927 3.9298816 21.61434888c0.98247041 0.98247041 5.89482242 9.82470403 5.89482242 9.82470402l17.68446727 3.92988161 16.70199686 5.89482242s23.57928967 5.89482242 22.59681925 4.91235202c0.98247041 0.98247041 18.66693766 1.9649408 17.68446727 0.98247041 0.98247041 0.98247041 14.73705605 0 14.73705605 0s11.78964483-4.91235202 10.80717442-5.89482243c0.98247041 0.98247041 12.77211524-1.9649408 11.78964484-1.9649408s14.73705605-11.78964483 14.73705735-11.78964484 10.80717443-26.52670089 9.82470403-27.50917129c0.98247041 0.98247041 7.85976322-72.70280982 6.87729282-73.68528153 0.98247041 0.98247041-1.9649408-42.24622734-2.94741121-43.22869774 0.98247041 0.98247041-34.38646411-15.71952645-35.3689358-16.70199685 0.98247041 0.98247041-47.15857935 4.91235202-48.14104977 3.92988162 0.98247041 0.98247041-25.54423047 35.36893452-26.52670088 35.3689345s-35.36893452 53.05340177-35.36893451 53.05340307l-4.91235201 41.26375693zM546.61138883 404.90218858s-2.94741121 26.52670089-3.92988161 25.54423048c0.98247041 0.98247041 2.94741121 44.21116814 1.96494081 43.22869903 0.98247041 0.98247041 24.56176009 55.01834257 24.56176008 55.01834257s8.84223363 16.70199685 7.85976324 15.71952645c0.98247041 0.98247041 15.71952645 8.84223363 14.73705733 7.85976324 0.98247041 0.98247041 29.4741121 0.98247041 28.4916417 0 0.98247041 0.98247041 24.56176009-4.91235202 24.56176007-4.91235202s14.73705605-5.89482242 13.75458565-6.87729283c0.98247041 0.98247041 10.80717443-16.70199685 9.82470402-17.68446725 0.98247041 0.98247041 0-40.28128653-0.98247039-41.26375694 0.98247041 0.98247041-16.70199685-44.21116814-17.68446726-45.19363983 0.98247041 0.98247041-19.64940805-32.42152331-20.63187846-33.40399371 0.98247041 0.98247041-45.19363855-12.77211524-46.17611025-13.75458565 0.98247041 0.98247041-36.35140492 15.71952645-36.35140493 15.71952646z" fill="#FFFFFF" p-id="5777"></path><path d="M173.70786847 885.73401458v0.14835278c0.13263322 0 0.08842213 0 0-0.14737023z m-22.25688517-752.130222c-0.96478571-2.56621242-0.29670558-1.48353051-1.48353051-2.96706101v2.96706101h1.48353051z m8.90216427 25.22492743h1.48353051c-0.96380316-2.56719497-0.29670558-1.48353051-1.48353051-2.967061v2.967061z m2.96706101 2.96706101c-0.96282061-2.56621242-0.29572303-1.48353051-1.4835305-2.96706101v2.96706101h1.4835305z m5.93608583 14.83825011c-0.99425977-4.45059151-1.97378251-8.90216428-2.96705971-13.35373705h-2.96804356c0.63860609 5.29649849 1.64662032 8.90216428 4.4505902 11.87020655v1.4835305h1.48353051z m4.45059151 8.90314682c-0.96380316-2.56719497-0.29670558-1.48353051-1.48353051-2.9670597v2.9670597h1.48353051z m682.5418421 38.57768323c-1.21826277-2.967061-6.45483061-3.88763565-8.90314683-5.93412071 1.1720866-1.39510836-5.32695507-11.29251495-7.41961634-20.77335468h-5.9341207c-0.49123585 4.45059151-0.99524231 8.90216428-1.48451307 13.35373835-5.25228741 5.56471258-5.93510327 10.9800898-14.83825139 13.35373704 3.5467177 5.46057085 9.8080019 12.27105515 14.83825139 11.87020784l-1.48353049 2.96706101c1.29096665 3.23527509 5.56373003 4.98603713 7.41863377 7.41961633 0.10414172 0.14835279-1.15734958 4.25900891 0 5.93510327l1.48353049 2.967061c3.88763565-2.6251605 2.24003278-0.87439845 1.48353052-4.45059149v-1.48353052l2.96804355 1.48353052c0.91959209-14.91193522 6.42535658-12.89394164 10.38667605-23.74041439 0.56393841-0.74176525 2.56719497-0.32617963 1.4835305-2.96706101z m-14.83923265 19.28982416c-4.89564989-6.21707313-4.95558053-13.3547209-13.35373836-16.32178059 3.30896021-6.76627322 8.16138158-7.41863377 8.90314684-17.80531112 5.19333803 5.46057085 6.09819438 11.06851194 13.35373835 14.83726755-2.40410515 8.04250284-7.58172359 10.25306157-8.90314683 19.28982416zM563.94216753 379.91207097c-0.35565367-7.49231889-1.1720866-6.64739447-4.45059151-10.38569479-11.67764269 0.62288652-16.12921675 5.93412073-23.74139694 10.38569479 0.59439501 3.04172868 0.37137325 2.86390185 1.48353051 4.45157406 1.90009739 1.30668623 3.66559775 1.38037133 7.41961633 1.48353049v1.48353052c-5.71306535 1.48451307-9.91214363 3.57619175-11.87020785 8.90314682-1.64662032 5.54997554 1.48353051 2.07792553 4.45059152 5.93510327a103.21244639 103.21244639 0 0 0-1.48353051 10.38667734h1.48353051v1.4835305c12.61295565-1.58767222 19.63074082-9.2588005 32.64356122-11.87020784-6.30549526 6.61792044-15.5200847 15.06127186-19.28884163 23.74041439-11.78080314 27.12404356-5.37116615 74.11560288 7.41863379 94.96264266 7.55224955 12.30052918 18.31030143 15.16443103 29.67551894 23.74041567 42.74826998-0.38611028 51.93338538-67.79438803 35.61160478-106.83285049-5.20807505-12.47737477-16.75210325-21.46992629-22.25688388-32.64257866h-2.96706101v-1.48353051c23.53213094 3.1743619 54.6322323 44.98732021 60.8345684 66.76967167 4.45059151 15.77258051 1.48353051 43.03023855 10.38667604 53.41691588v1.48353051c3.39738236-1.48353051 3.21955552-2.53772091 5.93412201-4.45157407 1.48353051-19.28884161 5.56471258-41.82769534 0-62.3180976-12.7446063-46.9178742-53.11922774-86.31297291-111.28344072-78.64184461z m41.54670804 86.05949582c-1.81069268 5.93510327-5.22379462 6.36640847-7.41961632 10.38667735-4.05072547 7.41863377-3.19008147 20.25362734-2.96706101 31.160032-13.08650551-2.07792553-9.94161766-19.49712506-16.32178061-28.19198844-4.64413793-6.33693442-14.76358243-6.55897234-19.28884161-13.35472091 12.33000324-5.65313471 18.29458186-15.6684375 17.80531112-34.12709171h1.48353049v-1.48353049c3.04172868 0.59341246 2.86390185 0.37137325 4.45059151 1.48353049 9.21557199 5.66885429 6.03924499 24.32007237 22.25786643 34.12709171zM277.57169286 376.94501124h1.32043939c-0.22302047-0.93531167-0.44505968-1.92858887-0.68281715-2.967061h-0.63860479v2.967061z m91.99459912 35.61062223h-1.48353052v-1.4835305c9.28827585 3.39738236 19.28884161 7.28501801 29.6745364 7.41863378-0.6818346-9.64491209-3.81198542-9.92688064 1.48353051-13.35373705-1.80971013-16.4111853-18.69542915-14.42266577-34.12611046-17.80531111-14.8382501-3.25001213-45.53750286 1.97279996-62.31908016 10.38667604-33.17802559 16.63322451-50.37420465 48.96436057-62.31809761 87.54302635-2.96804355 9.55550739-10.38765989 28.97796477-7.41961762 41.54572678s8.11618796 26.42648939 11.87020784 37.09415273c6.27602122 1.05419041 10.65390886 0.8016959 17.80531111 1.4835292-0.93432912 3.30896021-1.09840148 3.91809226-2.96705972 5.93608712a23.16174025 23.16174025 0 0 0 1.4835292 7.41765122c7.41863377-1.40886284 7.6858666-4.79150816 11.87020784-8.90118172 1.37938878-1.58865477-0.40084731 0.59242991 1.48353052 1.4835305 11.52928989 5.47432532 2.73028477 1.12689298 7.41863376 10.38569477v2.96804227c8.42861312-0.90485506 7.10719117-3.62040283 11.87020784-7.41863377 2.967061-1.27721217 18.54805892 3.64987817 25.22492744 2.967061 5.84569857-0.59341246 21.69294676-0.10414172 31.15904946-2.967061 5.59418661-1.69181394 10.57924119-5.04498523 17.8053111-5.93510327v-2.96706101c-17.22663567 2.2547698-40.72929386 11.30528687-63.8016281 5.93412072-4.11065612-0.94906613-9.64491209-5.13340737-11.8711904-5.93412072-4.67361197-1.67707693-11.23160176 0.54821884-16.32178061 0a21.29209817 21.29209817 0 0 1-1.48353049-7.41961633c-2.56719497-0.96478571-1.48353051-0.29670558-2.96706101-1.4835305-5.3721487 1.09741892-4.12539313-0.14835279-5.93510328 4.45059152l-10.38667734-1.48353052c-16.32178061-62.63052406 25.22394489-138.65899625 75.67281851-149.8621065-13.94813206 13.9471495-23.99291019 27.8510718-29.67551895 50.44887232-8.66538934 34.43853562 10.0300398 72.70477494 25.22394489 84.57596534 6.95883838 5.45958829 16.49960745 16.23237591 32.64356252 11.87020784 28.51816807-7.70158619 51.08649586-59.14471827 38.57768321-102.38127645-4.88091286-16.88571902-15.49061067-31.50094866-28.19100588-44.51376905z m-5.93510457 84.57596534c-3.26474915 8.56124763 0 21.11328877-4.45157276 28.19198844-1.60240925 1.12689298-1.36563431 0.93432912-4.45157407 1.48353051-1.95904547-12.53828797-8.02678325-23.2648994-13.35373705-32.64356251a71.38531681 71.38531681 0 0 0-19.28982417-2.96706101c-0.48927074-2.47779026-0.99425977-4.94182606-1.4835305-7.41961633 6.48430466-3.44159342 12.30052918-6.83995963 17.80531112-10.38569477 2.40410515-10.75805059 4.73354261-27.43548618 5.93510455-38.5786658h4.45059022c3.99275993 8.82847916 2.86488309 21.0101296 7.41961632 31.15904945 3.41310193 7.61218019 14.54056196 8.69486339 17.80531112 16.32178061h1.4835305c-2.59568645 6.2917408-9.40617203 8.35394544-11.86922528 14.83825141zM743.47881043 412.55563347c-0.93432912-2.596669-0.28098599-1.48353051-1.48353052-2.967061v2.38838556c0 0.19256386 0.08842213 0.38611028 0.1483528 0.57965799h1.33615897z m4.45157276 22.25688387v-2.96705971h-1.48353049c0.2073009 0.99327722 0.43032265 1.97279996 0.63860608 2.96705971h0.84492441z m-610.78416818 27.62706878c-0.07466768 1.48451307-0.16308981 2.96804355-0.25249581 4.52624044 1.06794489-1.86964078 1.20156194-2.79021543 0.25249581-4.52525789z m-89.56200377 34.69103014v0.44604092-0.35663624a0.3114426 0.3114426 0 0 1 0-0.08842213z m608.35157285 37.09513527c0.26723154 11.27679538 4.21479783 10.38667734 8.90314683 16.3217806h7.41863377c-0.75650228-10.25306157-5.07445927-9.71859719-7.41863377-17.80531111a27.09358695 27.09358695 0 0 0-8.90314683 1.48353051z m-8.90216428 8.90314684c-11.05475747 10.38667734-40.33041037 9.79228231-57.86750739 8.90216428 11.87020784 10.6991025 42.06447028-0.7122912 51.93240411 0 3.2048185 0.23775748 6.54325276 5.31221806 8.90216428 4.45157275 5.59418661-2.03273189 3.0869223-7.59646061 5.93510328-10.38667603-1.83918418-3.69408923-3.99079482-2.2852264-8.90216428-2.967061zM498.65602636 700.40963863c-9.91214363 6.20233611-29.67551894-0.56393841-38.57866577 5.93510328-9.9563547 6.54325276-11.02331831 18.31030143-10.38667735 35.61062222 15.7883001 15.86198522 13.84399034 15.80303712 41.54670935 13.35472089 5.77201345-5.93510327 14.73410838-10.96535278 19.28884162-17.8053111l7.41863377-22.25688518c0-7.0934367-0.83018739-9.39241758-2.96706101-13.3547196l-16.32178061-1.48353051z m8.90314683 25.22394489c-1.20254321 1.48353051-0.55018395 0.37137325-1.4835305 2.96804357-12.89492419-3.35317129-40.7155381-14.43740279-47.48181261 2.96706101h-2.967061c0.99327722-5.43011425 2.46305325-6.33496932 4.45059151-10.3856948l13.35471959-4.45157405c10.38569477-0.14835279 23.74041439-0.22302047 29.67551896 4.4505915l4.45059149 1.48353051v2.96804226z" fill="#2C2C2C" p-id="5778"></path></svg>