<?xml version="1.0" standalone="no"?><!DOCTYPE svg PUBLIC "-//W3C//DTD SVG 1.1//EN" "http://www.w3.org/Graphics/SVG/1.1/DTD/svg11.dtd"><svg t="1728997570177" class="icon" viewBox="0 0 1375 1024" version="1.1" xmlns="http://www.w3.org/2000/svg" p-id="18208" xmlns:xlink="http://www.w3.org/1999/xlink" width="268.5546875" height="200"><path d="M349.94658 606.222728s16.99202 201.447758 169.89272 262.123337c152.9007 60.675579 267.717734-184.455738 126.203666-184.455738-160.055813 0-208.525934-53.201728-213.57628-111.629657-5.050345-58.460901-82.520106-45.843282-82.520106 33.962058z" fill="#B3D492" p-id="18209"></path><path d="M349.94658 606.222728s16.99202 201.447758 169.89272 262.123337c144.157394 57.207932 254.418676-157.396002 147.960265-182.125656 33.269627 33.275123 37.413218 85.405233-93.12638 114.371901-130.528607 28.955677-224.726605-194.369582-224.726605-194.369582" fill="#E3D0BC" p-id="18210"></path><path d="M337.081665 607.299842c0.719908 8.561956 19.481472 210.147101 177.993055 273.048348 52.152092 20.695972 107.304715 10.457896 151.318003-28.087391 41.479872-36.319618 64.374036-91.499718 54.432715-131.204551-6.13845-24.482357-23.927314-41.325999-50.102278-47.398503a12.897888 12.897888 0 0 0-12.046089 21.701645c7.512319 7.506824 19.443003 22.443534 14.903738 38.028712-3.73143 12.793474-21.899482 36.902139-101.693831 54.608571-118.499004 26.290369-209.141428-184.653576-210.042687-186.785822 0.236306 0.560539 0.428647 1.121078 0.582521 1.698103l-0.577025-1.692607a12.914375 12.914375 0 0 0-23.795423 10.034744c4.017195 9.523664 99.984737 232.887391 239.421515 201.958837 70.754287-15.695087 111.431819-40.138976 120.889538-72.600767 6.116468-21.003719-1.489275-43.562659-21.426871-63.50575a12.914375 12.914375 0 0 1-12.05708 21.701644c16.733732 3.885303 27.131178 13.480409 30.901076 28.516039 7.600247 30.340537-12.34834 75.689226-46.39283 105.507693-21.432366 18.772555-66.138085 46.788505-124.780336 23.515153-143.525414-56.949644-161.62752-249.280404-161.792385-251.225803v0.010991a12.914375 12.914375 0 1 0-25.735326 2.170714z" fill="#6E6E96" p-id="18211"></path><path d="M1213.264282 493.158752c0 188.357528-65.484123 351.485314-495.763608 351.485314-239.383047 0-371.065704-174.530904-371.065705-233.255588 0-90.900711-10.023753-76.282738-10.023753-165.06769 0-188.352033 76.859763-283.489758 353.035039-283.489758 276.164285 0.005495 523.818027 141.981184 523.818027 330.327722z" fill="#E3D0BC" p-id="18212"></path><path d="M1200.355403 493.158752c0 75.123192-9.3588 169.942179-82.33326 236.866117-74.650581 68.446186-205.66279 101.715813-400.515974 101.715813-231.139829 0-358.15133-165.496337-358.15133-220.352204 0-46.585172-2.632334-66.291958-5.171245-85.37226-2.500443-18.723096-4.852508-36.418537-4.852508-79.684439 0-167.051558 56.900185-270.580879 340.120665-270.580879 281.714718-0.005495 510.903652 142.38785 510.903652 317.407852z m-510.909148-343.231106c-263.337838 0-365.943918 83.102627-365.943918 296.404133 0 44.985988 2.582875 64.35755 5.077822 83.102627 2.538911 19.085797 4.940435 37.105471 4.940436 81.959567 0 63.27494 132.023377 246.169963 383.985574 246.169963 201.612622 0 338.329138-35.495296 417.964118-108.497234 80.404347-73.727341 90.71936-175.487117 90.719361-255.896959-0.010991-189.269778-240.789889-343.242096-536.743393-343.242097z" fill="#6E6E96" p-id="18213"></path><path d="M1164.354523 262.95865c-12.584646-52.553262-81.102273-108.255432-173.514241-135.485529a398.323278 398.323278 0 0 0-26.768476-6.869348c-45.348689-41.837078-122.747009-69.407894-210.663675-69.407895-74.996796 0-142.354877 20.085974-188.676266 51.95975a333.23483 333.23483 0 0 0-64.308091 12.10654c-88.922339 25.883704-154.829613 83.591725-172.448117 143.558386C227.512813 352.567923 204.085588 454.085899 303.72411 454.085899c56.416583 0 91.955843-11.578973 131.688153 0 149.856205 43.689055 208.014855 192.644001 475.611688 192.644001 106.249583 0 316.297765-40.836901 316.297765-236.525397 0-56.411088-24.240556-105.672557-62.967193-147.245853z" fill="#8DBFAA" p-id="18214"></path><path d="M1176.911691 259.947127c-14.040948-58.631261-87.350632-116.850361-182.422411-144.860815a411.314589 411.314589 0 0 0-27.625771-7.094663c2.225669 0.494593 4.280978 1.571707 5.96809 3.115937-49.442821-45.601481-131.473829-72.826082-219.423468-72.826082-74.474726 0-145.915947 19.767236-196.007235 54.234878 1.840985-1.26396 3.984222-2.038823 6.204396-2.225669-22.256688 1.923418-44.733196 6.149441-66.803038 12.573655C406.143344 129.253656 335.004374 189.038967 315.577857 255.177052c0.648466-2.220173 1.884949-4.220528 3.577557-5.79773-70.424558 65.725924-104.958145 136.040572-87.971621 179.136115 6.918808 17.552559 25.119833 38.484836 72.540317 38.484837 21.003719 0 39.287176-1.571707 55.416406-2.956568 27.730185-2.385038 49.640658-4.264491 72.655722 2.439993 52.514793 15.310403 94.033134 44.551845 137.980476 75.507875 78.288588 55.147127 167.029576 117.647205 341.247237 117.647206 34.896289 0 124.598986-4.506292 204.008652-46.365353 81.904613-43.161489 125.192497-113.377218 125.192497-203.068924 0-56.229737-22.344616-108.733539-66.434841-156.04961 1.527743 1.632157 2.593866 3.627016 3.121432 5.792234z m37.490155 150.257376c0 80.635157-37.473668 141.272268-111.404342 180.229715-76.392648 40.254381-166.249218 43.392299-191.973553 43.392299-166.045885 0-247.549328-57.411265-326.376472-112.93758-45.76085-32.236477-88.982789-62.681429-145.630182-79.195342-27.642257-8.056372-52.871999-5.885658-82.091459-3.379719-16.376526 1.406843-33.313591 2.863144-53.207224 2.863144-26.405775 0-42.727346-7.446373-48.514085-22.130292-10.364473-26.284874 10.743661-84.69082 81.563893-150.784941 1.692607-1.582698 2.92909-3.583052 3.577557-5.803226 17.014002-57.900362 81.256146-110.81083 163.671838-134.804089a320.864507 320.864507 0 0 1 61.807648-11.639424 12.85942 12.85942 0 0 0 6.204395-2.225669c45.898237-31.571524 112.003349-49.684622 181.36728-49.684621 81.635334 0 157.115732 24.669203 201.903882 65.989706 1.687112 1.549725 3.747916 2.626839 5.973586 3.115937 8.946639 1.978372 17.662468 4.215032 25.90019 6.644033 85.15244 25.092355 152.84025 76.947691 164.611565 126.110243 0.527566 2.170714 1.593689 4.165573 3.110441 5.797729 39.490509 42.375635 59.505042 88.955312 59.505042 138.442097z" fill="#6E6E96" p-id="18215"></path><path d="M306.889505 427.015172l-0.115405 0.076936c0.851799-0.527566 88.152972-50.618853 309.785623 114.459828 122.208453 91.027107 339.241388 106.035259 483.805447 33.456474 89.96648-45.167338 139.513715-119.5981 139.513715-209.575571a10.3315 10.3315 0 0 0-20.663 0c0 104.787785-69.671677 161.764907-128.116092 191.110763-135.930663 68.248348-347.594515 53.800735-462.19173-31.549543-235.420807-175.355226-329.415472-117.817565-333.300775-115.284149a10.326004 10.326004 0 1 0 11.282217 17.305262z" fill="#FFFFFF" p-id="18216"></path><path d="M1078.410733 683.390238s31.620984 132.215719 139.381823 157.110237c107.760839 24.921995 159.368879-149.6199 65.302772-135.342646-106.408952 16.145716-143.998025-14.326713-153.263402-52.679658-9.237899-38.352945-59.461078-22.130292-51.421193 30.912067z" fill="#F7E2CD" p-id="18217"></path><path d="M1197.190007 792.953594a14.321217 9.545646 0 1 0 28.642435 0 14.321217 9.545646 0 1 0-28.642435 0Z" fill="#E3D0BC" p-id="18218"></path><path d="M1154.633021 752.693718a8.583938 6.677006 0 1 0 17.167875 0 8.583938 6.677006 0 1 0-17.167875 0Z" fill="#E3D0BC" p-id="18219"></path><path d="M1236.729976 764.629898a23.861368 11.936179 0 1 0 47.722736 0 23.861368 11.936179 0 1 0-47.722736 0Z" fill="#E3D0BC" p-id="18220"></path><path d="M1106.910285 701.140634a8.583938 4.775571 0 1 0 17.167875 0 8.583938 4.775571 0 1 0-17.167875 0Z" fill="#E3D0BC" p-id="18221"></path><path d="M1191.326332 731.689999a7.215563 4.770075 0 1 0 14.431126 0 7.215563 4.770075 0 1 0-14.431126 0Z" fill="#E3D0BC" p-id="18222"></path><path d="M367.086978 517.773a12.914375 7.743129 0 1 0 25.828749 0 12.914375 7.743129 0 1 0-25.828749 0Z" fill="#00A33D" p-id="18223"></path><path d="M276.719328 418.359793a24.526321 11.622937 0 1 0 49.052642 0 24.526321 11.622937 0 1 0-49.052642 0Z" fill="#00A33D" p-id="18224"></path><path d="M290.260187 664.216513a16.469949 10.534832 0 1 0 32.939899 0 16.469949 10.534832 0 1 0-32.939899 0Z" fill="#00A33D" p-id="18225"></path><path d="M410.984861 582.322892a12.914375 9.040062 0 1 0 25.828749 0 12.914375 9.040062 0 1 0-25.828749 0Z" fill="#00A33D" p-id="18226"></path><path d="M218.58266 625.231588a26.284874 17.519586 0 1 0 52.569748 0 26.284874 17.519586 0 1 0-52.569748 0Z" fill="#00A33D" p-id="18227"></path><path d="M262.205769 504.386014a24.042719 11.958161 0 1 0 48.085438 0 24.042719 11.958161 0 1 0-48.085438 0Z" fill="#00A33D" p-id="18228"></path><path d="M398.081477 459.03183a10.974471 5.808721 0 1 0 21.948941 0 10.974471 5.808721 0 1 0-21.948941 0Z" fill="#00A33D" p-id="18229"></path><path d="M1165.503078 264.244592c-0.384684-0.428647-0.752881-0.86279-1.154051-1.285942-12.584646-52.553262-81.102273-108.255432-173.51424-135.485529a397.619857 397.619857 0 0 0-26.773972-6.869348c-45.343194-41.837078-122.741514-69.407894-210.652684-69.407895-75.007787 0-142.360372 20.085974-188.681762 51.95975a333.23483 333.23483 0 0 0-64.30809 12.10654c-88.922339 25.883704-154.829613 83.591725-172.448118 143.558386-1.230987 1.148555-2.396029 2.302606-3.605034 3.451161 44.755178 97.588709 216.197623 170.288395 421.019605 170.288394 203.453608 0 373.983803-71.721491 420.118346-168.315517z" fill="#9AD1BA" p-id="18230"></path><path d="M1175.081697 255.578222l-0.34072-0.368197c-0.269278-0.307747-0.599007-0.686935-0.994681-1.099096 1.538734 1.637653 2.632334 3.654493 3.154404 5.841694-14.046443-58.631261-87.356127-116.850361-182.422411-144.860815a409.781351 409.781351 0 0 0-27.631266-7.094663c2.231164 0.494593 4.286473 1.571707 5.979081 3.115936-49.437325-45.606977-131.468334-72.831578-219.417973-72.831577-74.474726 0-145.915947 19.767236-196.007235 54.234878 1.840985-1.26396 3.984222-2.038823 6.204396-2.225669-22.256688 1.923418-44.733196 6.149441-66.803038 12.573655C406.143344 129.253656 335.004374 189.038967 315.577857 255.177052a13.299058 13.299058 0 0 1 3.550079-5.775748l-2.319092 2.220173-1.362878 1.307924a12.98032 12.98032 0 0 0-2.824676 14.722387c48.008501 104.694362 225.963088 177.8172 432.752451 177.817201 204.821982 0 382.380895-72.238066 431.779751-175.662973a13.062753 13.062753 0 0 0-2.071795-14.227794z m-429.707956 164.073008c-193.907961 0-366.031846-68.451681-409.281262-162.759589a12.969329 12.969329 0 0 1-2.824676 14.722387l1.472788-1.417833 2.055309-1.961886c1.626662-1.560716 2.912604-3.610529 3.550079-5.775748 17.014002-57.900362 81.256146-110.81083 163.671838-134.804089a320.864507 320.864507 0 0 1 61.807648-11.639424 12.85942 12.85942 0 0 0 6.204395-2.225669c45.898237-31.571524 112.003349-49.684622 181.36728-49.684621 81.635334 0 157.115732 24.669203 201.903882 65.989706 1.687112 1.549725 3.747916 2.626839 5.973586 3.115937 8.946639 1.978372 17.662468 4.215032 25.90019 6.644033 85.15244 25.092355 152.84025 76.947691 164.611565 126.110243 0.527566 2.1872 1.615671 4.204041 3.148909 5.841693 0.115405 0.115405 0.280269 0.302251 0.456125 0.505584l0.538557 0.593512a13.040771 13.040771 0 0 1-2.077291-14.227794c-44.551845 93.274758-216.33501 160.973558-408.478922 160.973558z" fill="#6E6E96" p-id="18231"></path><path d="M608.14065 604.145437s209.982236 113.063976 370.076518 90.939179 44.760673 89.510355-173.871447 89.510355c-62.219808 0-69.358435-103.771122-109.338041-111.10209-14.447613-2.63783-68.5506 75.722199-41.067712 103.199592 52.003714 52.014705-164.864357-18.321926-130.187887-129.81969 27.774149-89.312518-39.594923-166.980116-39.594923-166.980117s31.483597 72.870046 123.983492 124.252771z" fill="#F7E2CD" p-id="18232"></path><path d="M990.834787 127.467626a397.619857 397.619857 0 0 0-26.773972-6.869349c-45.343194-41.837078-122.741514-69.407894-210.652684-69.407894-75.007787 0-142.360372 20.085974-188.681762 51.95975-1.478284 0.126396-2.978549 0.346215-4.467824 0.494593 37.698983 56.78478 124.30223 96.51709 225.155253 96.51709 86.037213 0 161.682475-28.93919 205.486935-72.688695l-0.065946-0.005495z" fill="#A6E0C8" p-id="18233"></path><path d="M994.48928 115.091808a414.106292 414.106292 0 0 0-27.636762-7.100159c2.231164 0.494593 4.286473 1.571707 5.979081 3.115937-49.442821-45.601481-131.473829-72.826082-219.423468-72.826082-74.474726 0-145.915947 19.767236-196.007235 54.234878a12.914375 12.914375 0 0 1 6.1989-2.225669c-1.03315 0.093423-2.038823 0.214324-2.923595 0.313242a54.443706 54.443706 0 0 1-1.709093 0.192342 12.914375 12.914375 0 0 0-9.474205 19.992551c41.254558 62.137376 133.853372 102.287343 235.909904 102.287343 86.449373 0 166.677865-28.58748 214.603934-76.464089a12.914375 12.914375 0 0 0-9.116999-22.042365c1.044141-0.005495 2.055309 0.120901 3.599538 0.522071z m-12.733024 3.247828c-43.183471 43.150498-116.586578 68.907806-196.347954 68.907805-93.642955 0-177.800714-35.616197-214.400601-90.746837a12.914375 12.914375 0 0 1-9.468709 19.992551c0.774862-0.076937 1.500266-0.164864 2.203687-0.247297 0.758376-0.093423 1.472788-0.175855 2.099272-0.23081a12.875906 12.875906 0 0 0 6.193405-2.225669c45.898237-31.571524 112.003349-49.684622 181.372775-49.684621 81.629839 0 157.115732 24.669203 201.898387 65.989706 1.692607 1.549725 3.742421 2.626839 5.973585 3.115937a388.145652 388.145652 0 0 1 25.900191 6.644033 12.886897 12.886897 0 0 1-8.221236-7.440878 12.91987 12.91987 0 0 1 2.797198-14.07392z" fill="#6E6E96" p-id="18234"></path><path d="M1162.205791 575.464534c2.148732-13.985993 1.731076-19.311112 0.994681-28.966667a449.200419 449.200419 0 0 1-0.857294-13.299058c-10.304022-215.356814-109.129214-390.926364-264.365493-469.660086a13.700228 13.700228 0 0 0-1.439815-0.620989c-43.40329-15.772024-93.35719-24.108665-144.459645-24.108664-61.692242 0-120.125666 11.815279-168.996957 34.16539a13.282572 13.282572 0 0 0-1.077114 0.555043C444.826018 152.625926 363.454466 299.003494 374.687225 446.452679c0.082432 1.099096 0.203333 2.132246 0.313242 3.039 0.065946 0.555043 0.126396 1.077114 0.17036 1.538734a12.903384 12.903384 0 0 0 12.084557 11.688883c9.732493 0.577025 18.580213 2.00585 27.048746 4.352419 55.377938 15.354367 99.077983 44.639772 145.344417 75.634272 82.190378 55.070191 175.338739 117.476845 358.129348 117.476845 65.692951-0.010991 165.93048-31.813325 238.349896-75.628776a12.941852 12.941852 0 0 0 6.078-9.089522z m-244.427896 58.906035c-174.937569 0-260.760458-57.504688-343.758672-113.10794-48.046969-32.192513-93.423136-62.604492-152.818268-79.068946-10.238077-2.841162-20.838855-4.555752-32.406837-5.248182a12.914375 12.914375 0 0 1 12.084558 11.688883c-0.076937-0.796844-0.164864-1.544229-0.241802-2.209182a36.528446 36.528446 0 0 1-0.203332-1.906931c-10.485373-137.628765 65.846824-274.455191 194.457509-348.605683-0.351711 0.203333-0.708917 0.384684-1.077114 0.555043 45.524545-20.822368 100.24852-31.829812 158.258792-31.829812 48.129401 0 95.033311 7.798084 135.644898 22.553444a11.414109 11.414109 0 0 1-1.43432-0.620989c146.861169 74.485717 240.405206 241.910967 250.258599 447.865017a466.126493 466.126493 0 0 0 0.912249 14.051939c0.664953 8.748802 0.92324 12.024107-0.780358 23.064524a12.892393 12.892393 0 0 1 6.077999-9.078531c-68.836365 41.650232-163.452019 71.886355-224.973901 71.897346z" fill="#6E6E96" p-id="18235"></path><path d="M961.433976 648.197193c6.671511-27.136673 7.550788-45.101393 8.765289-79.997681 7.644211-220.434637-35.044667-401.939303-114.157577-485.514541-24.57578-25.955145-51.415698-39.946634-77.656607-40.4742-28.164328-0.57153-57.823426 13.326536-85.789916 40.188435-70.463026 67.676819-117.81207 201.370821-120.62026 340.598771-0.807835 40.19393 2.071795 79.898763 8.567452 117.998916a12.914375 12.914375 0 0 0 4.550256 7.831057c56.301178 46.079588 135.606429 95.203671 296.942689 110.17885 15.118062 1.406843 34.006021 0.52207 52.289479-0.335225l15.079593-0.664953a13.035275 13.035275 0 0 0 12.029602-9.809429z m-77.035618-14.909233c-153.988805-14.282749-227.007229-58.642252-282.967687-104.452561 2.412515 1.967381 4.028186 4.753589 4.550256 7.825561-6.215386-36.506464-8.979612-74.568149-8.20475-113.140913 3.253323-161.270314 62.736383-274.521137 112.690284-322.491169 22.916146-22.014887 46.22247-33.428996 67.385558-32.994853 19.173725 0.384684 39.721319 11.589964 59.42261 32.406837 57.499192 60.736029 115.822706 215.268887 107.106877 466.868382-1.258465 36.29214-2.220173 51.085969-8.028894 74.716527a12.969329 12.969329 0 0 1 12.035098-9.809429l-15.299412 0.664952c-17.371208 0.80234-35.352414 1.637653-48.68994 0.406666z" fill="#6E6E96" p-id="18236"></path><path d="M1217.43535 371.587775c-6.781421 187.428792-211.636375 226.919301-316.110918 226.919301-267.602329 0-325.766474-148.971433-475.62268-192.654992-39.726815-11.578973-75.27157 0-131.688153 0-27.543339 0-45.606977-7.80358-55.311992-21.020206-12.22744 43.46374 5.187732 74.414275 60.169995 74.414275 56.411088 0 91.955843-11.578973 131.682658 0 149.856205 43.683559 208.02035 192.649497 475.617184 192.649497 106.249583 0 340.571294-55.405415 340.571294-251.093911 0-62.417646-32.165036-54.405238-29.307388-29.213964z" fill="#8DBFAA" p-id="18237"></path><path d="M1204.531967 371.120659c-7.545292 208.454493-272.971412 214.466547-303.207535 214.466547-166.045885 0-247.560319-57.411265-326.387464-112.93758-45.76085-32.230982-88.977294-62.675933-145.630182-79.189847-27.642257-8.056372-52.877495-5.885658-82.091459-3.379719-16.376526 1.406843-33.319087 2.863144-53.212719 2.863144-15.211485 0-35.346918-2.736748-44.903555-15.750041a12.91987 12.91987 0 0 0-22.839209 4.149086c-7.446373 26.493702-4.912958 49.047146 7.347455 65.236826 12.85942 16.975533 34.808361 25.581453 65.253312 25.581453 21.003719 0 39.287176-1.571707 55.421902-2.956567 27.730185-2.385038 49.640658-4.264491 72.650226 2.445488 52.520289 15.310403 94.033134 44.546349 137.985972 75.507875 78.294083 55.141632 167.02408 117.647205 341.258228 117.647205 91.708546 0 353.463686-48.503094 353.463687-264.008286 0-38.902493-11.496541-53.141278-21.141106-58.235586-7.330968-3.879808-15.744546-3.44017-22.49849 1.165041-8.430064 5.753766-12.804465 16.986524-11.403118 29.307388a13.876083 13.876083 0 0 1-0.065945-1.912427z m29.301891 29.675584c0 194.430032-242.647361 238.190528-327.656919 238.190528-166.045885 0-247.549328-57.411265-326.387463-112.948571-45.76085-32.225486-88.977294-62.670438-145.624687-79.178855-27.642257-8.061867-52.877495-5.891153-82.091459-3.37972-16.382022 1.406843-33.319087 2.863144-53.212719 2.863145-15.074098 0-35.055658-2.659812-44.66725-15.354367-9.084026-11.991134-6.682502-29.812971-3.071972-42.655905a12.91987 12.91987 0 0 1-22.833714 4.149086c12.815456 17.442649 34.923766 26.290369 65.720429 26.29037 21.003719 0 39.287176-1.577202 55.421901-2.962063 27.73568-2.385038 49.640658-4.264491 72.650227 2.439992 52.520289 15.310403 94.033134 44.551845 137.985971 75.513371 78.288588 55.147127 167.02408 117.647205 341.247238 117.647206 34.088454 0 121.878724-4.335933 200.573977-44.579323 80.920922-41.369963 125.33538-108.728044 128.440325-194.770751 0.027477-0.642971 0-1.285942-0.076937-1.917922-0.362702-3.231341 0.390179-5.022867 0.686935-5.402056-0.80234 1.027654-3.462152 1.37387-4.583229 0.609999 1.939904 1.318915 7.479346 10.68321 7.479346 35.445836z" fill="#6E6E96" p-id="18238"></path><path d="M499.253237 528.945308c23.767945 106.04625-67.830692 216.868071-204.585676 247.499869-136.754984 30.653779-225.765251-35.621692-249.533195-141.689924C21.371916 528.709003 71.858878 423.041941 208.608367 392.393657c136.754984-30.631798 266.87143 30.494411 290.64487 136.551651z" fill="#E3D0BC" p-id="18239"></path><path d="M476.243669 491.015515c20.09147 80.151555-64.747729 165.386428-189.473111 190.379864-124.730877 24.987941-204.69009-24.152628-224.776064-104.315174-20.09147-80.15705 27.296042-160.962567 152.026919-185.961499 124.741868-24.982446 242.12529 19.734264 262.222256 99.896809z" fill="#F7E2CD" p-id="18240"></path><path d="M1302.97797 705.284225c9.886366 10.238077 24.279024 67.253667-71.979779 88.444232-96.670964 21.278493-152.576467-131.649685-152.587458-131.671667-1.077114 6.253855-1.20351 13.370499 0 21.333448 0 0 31.615488 132.215719 139.370832 157.110237 99.083479 22.91065 150.592599-122.626109 85.196405-135.21625z" fill="#E3D0BC" p-id="18241"></path><path d="M193.100126 505.759884m-24.141637 0a24.141637 24.141637 0 1 0 48.283274 0 24.141637 24.141637 0 1 0-48.283274 0Z" fill="#6E6E96" p-id="18242"></path><path d="M687.281037 295.173145m-18.074629 0a18.074629 18.074629 0 1 0 36.149258 0 18.074629 18.074629 0 1 0-36.149258 0Z" fill="#6E6E96" opacity=".27" p-id="18243"></path><path d="M831.218612 349.963067m-21.948942 0a21.948941 21.948941 0 1 0 43.897883 0 21.948941 21.948941 0 1 0-43.897883 0Z" fill="#6E6E96" opacity=".27" p-id="18244"></path><path d="M754.413803 269.882953m-7.743129 0a7.743129 7.743129 0 1 0 15.486258 0 7.743129 7.743129 0 1 0-15.486258 0Z" fill="#6E6E96" opacity=".27" p-id="18245"></path><path d="M687.193109 736.548002s16.99202 201.447758 169.89272 262.123337c152.9007 60.681074 267.728725-184.450243 126.203666-184.450243-160.039327 0-208.509448-53.201728-213.57628-111.635151-5.044849-58.460901-82.520106-45.848778-82.520106 33.962057z" fill="#F7E2CD" p-id="18246"></path><path d="M873.204068 930.923079a19.360571 12.914375 0 1 0 38.721142 0 19.360571 12.914375 0 1 0-38.721142 0Z" fill="#E3D0BC" p-id="18247"></path><path d="M808.648681 862.498876a11.617442 9.040062 0 1 0 23.234884 0 11.617442 9.040062 0 1 0-23.234884 0Z" fill="#E3D0BC" p-id="18248"></path><path d="M919.668339 878.633601a32.285937 16.140221 0 1 0 64.571874 0 32.285937 16.140221 0 1 0-64.571874 0Z" fill="#E3D0BC" p-id="18249"></path><path d="M744.104285 792.777739a11.611946 6.451692 0 1 0 23.223893 0 11.611946 6.451692 0 1 0-23.223893 0Z" fill="#E3D0BC" p-id="18250"></path><path d="M858.272853 834.092747a9.765465 6.457187 0 1 0 19.530931 0 9.765465 6.457187 0 1 0-19.530931 0Z" fill="#E3D0BC" p-id="18251"></path><path d="M687.193109 736.548002s16.99202 201.447758 169.89272 262.123337c144.151898 57.207932 254.440658-157.385011 147.965761-182.114664 33.275123 33.269627 37.407723 85.394242-93.120885 114.366404-130.534103 28.955677-224.737596-194.375077-224.737596-194.375077" fill="#E3D0BC" p-id="18252"></path><path d="M474.149891 493.548931c-20.096965-80.168041-137.480387-124.884751-262.222255-99.89681C87.196759 418.651053 39.814742 499.451075 59.900716 579.608125c4.671157 18.646159 12.617619 35.577728 23.575604 50.316602-22.295157-59.444592 11.831765-127.681949 117.42189-167.853898 112.316591-42.72185 228.710827-27.191628 260.007578 34.692957 19.212193 38.001234 1.808012 84.624875-40.468704 124.868264 43.243921-36.610878 64.978539-83.146591 53.712807-128.083119z" fill="#FFF3E8" p-id="18253"></path><path d="M674.328194 737.630612c0.719908 8.561956 19.486967 210.130614 177.998551 273.042852 56.125323 22.273175 116.372254 8.309164 161.143918-37.380245 39.875193-40.672037 56.883699-94.901419 41.347981-131.864008-6.297818-14.98617-23.949296-40.122489-71.54014-40.122489-127.445644 0-194.97958-33.593861-200.711364-99.84735-2.973054-34.511605-26.235415-49.019669-47.975528-48.079942-29.966845 1.296933-60.312877 30.280087-60.312877 83.168572 0.005495 0.357206 0.021982 0.725403 0.049459 1.08261z m82.536593-33.945572c4.863499 56.306673 48.096428 123.433944 226.424708 123.433945 24.894518 0 40.952306 8.177272 47.739222 24.311997 11.238254 26.768476-4.237014 71.386267-35.989889 103.787608-17.882287 18.244989-66.676642 57.845407-133.182923 31.45612-143.519918-56.949644-161.622025-249.274908-161.78689-251.214813 0.043964 0.362702 0.054955 0.730899 0.054955 1.088105 0-36.270159 18.343907-56.625411 35.605206-57.361805 11.848252-0.516575 19.75075 8.649883 21.135611 24.498843zM1065.864556 686.390769c1.362879 5.720793 34.786379 140.283082 149.020892 166.688856 41.27654 9.545646 81.552902-6.435205 107.733362-42.743832 23.383261-32.401342 29.285405-72.084192 14.370677-96.506099-6.253855-10.216095-21.800564-26.609107-55.839558-21.432367-82.184882 12.474736-128.863477-1.983868-138.76633-42.941669-6.077999-25.224247-25.861722-33.374041-41.661223-30.280087-21.773086 4.258996-40.809424 28.356669-35.077639 66.160066 0.065946 0.351711 0.137387 0.703421 0.219819 1.055132z m51.426688-30.873598c9.336818 38.660692 46.024633 80.876958 167.738493 62.406654 14.700405-2.231164 24.768122 0.912249 29.922881 9.353305 9.18844 15.04662 3.357737 44.89806-13.266086 67.951592-9.562133 13.244103-36.588896 42.952661-80.981372 32.681612-98.830687-22.839209-129.435007-146.284144-129.720772-147.531618 0.076937 0.34072 0.142882 0.703421 0.203333 1.060627-3.467647-22.8502 6.396737-35.363405 14.519054-36.957093 7.699165-1.49477 10.661228 7.210068 11.584469 11.034921zM486.657601 531.77548c8.875198 39.589428 0.648466 80.89894-23.789927 119.444226-34.890793 55.053704-97.226007 96.088443-171.019293 112.624338-62.456114 14.007975-117.575764 7.385923-159.407347-19.124265-37.693488-23.894341-63.527732-62.890257-74.705536-112.772716-11.578973-51.66849-4.066654-102.029055 21.141106-141.805329 26.795954-42.271221 72.63374-71.721491 132.561934-85.146945 129.577889-29.027118 253.039311 27.840094 275.219063 126.780691z m-280.87391-151.97746C139.035608 394.756712 87.608919 428.136249 57.06505 476.320605c-28.900722 45.595986-37.616551 102.869863-24.526321 161.264819 12.711042 56.718834 42.474554 101.309148 86.075681 128.940414 47.744718 30.263601 109.601825 38.056189 178.877827 22.525967 80.420833-18.008683 148.6472-63.208995 187.186991-123.988988 28.180814-44.458422 37.578082-92.505391 27.175142-138.920203-25.290192-112.844157-162.589229-178.487649-306.070679-146.344594z" fill="#6E6E96" p-id="18254"></path><path d="M600.040314 490.169211s-39.528977-30.379006 101.523472-21.218042 202.16217 6.671511 221.654632-12.820952v128.759063s51.547589 10.507355 71.18843-9.12799V432.312813s90.345668-28.175319 101.001401-49.459307c0 0 18.310935 117.284504 18.310934 147.427203 0 0 35.671151-1.577202 60.263418-58.356486 0 0-11.249245-98.797714-23.619567-123.879079 0 0 34.802866-42.133834 34.802866-54.954785S1162.530024 280.269407 1162.530024 280.269407s-199.5738 229.700013-564.748351 143.239649c0 0.005495-40.353299 24.048214 2.258641 66.660155z" fill="#6E6E96" opacity=".15" p-id="18255"></path><path d="M353.831883 232.068565s163.611388 250.681751 580.822626 125.340875c0 0 244.724652-83.795057 179.603231-148.916478 0 0 56.938654 46.277425 48.272284 71.781941s-207.531253 182.917004-460.966238 151.136651C448.123305 399.631202 326.453409 308.31833 322.787925 270.196195l31.043958-38.12763z" fill="#6E6E96" opacity=".15" p-id="18256"></path><path d="M868.791199 203.87676s43.392299 87.240722 34.247822 162.418869l76.315711-26.065055s-19.51994-124.219798-40.578614-160.781217l-69.984919 24.427403zM625.989964 385.722146s1.533239-144.448654 46.958865-189.874281l5.066831-5.066831-69.896992-24.718662s-57.202436 113.553074-57.202436 201.673072c0 0.005495 50.789213 17.986701 75.073732 17.986702zM441.270443 314.434798s54.773435-155.664926 128.478794-178.921792l-14.733378-18.272466S444.600703 200.315689 421.041586 299.827815l20.228857 14.606983z" fill="#6E6E96" opacity=".15" p-id="18257"></path><path d="M811.011737 99.808882c15.013647 12.793474 21.080656 30.340537 13.535364 39.199249-7.545292 8.853216-23.042542 0.390179-38.072676-12.403296-15.008152-12.793474-23.861368-25.064878-16.316076-33.923589 7.550788-8.858711 25.83974-5.665838 40.853388 7.127636z" fill="#FFFFFF" opacity=".75" p-id="18258"></path><path d="M1012.28364 218.346355c7.396914 11.628433 7.836552 24.592267 0.972699 28.955676-6.852862 4.36341-15.458781-4.47332-22.855695-16.107247-7.40241-11.628433-10.787624-21.641195-3.923772-26.004605 6.847366-4.36341 18.398862 1.527743 25.806768 13.156176zM522.532085 209.427193c-9.924834 15.085089-11.298704 29.686575-3.055486 32.615665 8.232227 2.92909 19.481472-9.380782 29.411801-24.46587 9.924834-15.085089 14.766351-27.230096 6.523133-30.153691-8.232227-2.934586-22.949119 6.918808-32.879448 22.003896z" fill="#FFFFFF" opacity=".4" p-id="18259"></path><path d="M104.771299 712.389878c-8.050876 0-15.689591-1.214501-22.905155-3.638006-27.488384-9.243395-37.66601-32.95089-38.083666-33.962058a13.738696 13.738696 0 0 1 25.306679-10.710688c0.357206 0.80234 6.396737 13.727705 21.954437 18.761564 16.244635 5.259173 38.336459 0.181351 63.873947-14.661937a13.738696 13.738696 0 0 1 13.804642 23.751459c-23.416234 13.623291-44.826619 20.459667-63.950884 20.459666z" fill="#6E6E96" p-id="18260"></path></svg>