<svg t="1747641782740" class="icon" viewBox="0 0 1024 1024" version="1.1" xmlns="http://www.w3.org/2000/svg" p-id="13969" width="200" height="200"><path d="M910.222222 796.444444h-227.555555a56.888889 56.888889 0 0 0 56.888889 56.888889h85.333333a28.444444 28.444444 0 0 1 0 56.888889h-625.777778a28.444444 28.444444 0 0 1 0-56.888889H284.444444a56.888889 56.888889 0 0 0 56.888889-56.888889H113.777778a113.777778 113.777778 0 0 1-113.777778-113.777777V227.555556a113.777778 113.777778 0 0 1 113.777778-113.777778h796.444444a113.777778 113.777778 0 0 1 113.777778 113.777778v455.111111a113.777778 113.777778 0 0 1-113.777778 113.777777z m56.888889-568.888888a56.888889 56.888889 0 0 0-56.888889-56.888889H113.777778a56.888889 56.888889 0 0 0-56.888889 56.888889v455.111111a56.888889 56.888889 0 0 0 56.888889 56.888889h796.444444a56.888889 56.888889 0 0 0 56.888889-56.888889V227.555556z m-113.777778 455.111111H170.666667a56.888889 56.888889 0 0 1-56.888889-56.888889V284.444444a56.888889 56.888889 0 0 1 56.888889-56.888888h682.666666a56.888889 56.888889 0 0 1 56.888889 56.888888v341.333334a56.888889 56.888889 0 0 1-56.888889 56.888889z" fill="#FF9800" p-id="13970"></path></svg>