<svg t="1747518810675" class="icon" viewBox="0 0 1024 1024" version="1.1" xmlns="http://www.w3.org/2000/svg" p-id="8493" width="200" height="200"><path d="M121.6 582.4c-32 83.2-38.4 160-12.8 172.8C128 768 160 742.4 185.6 704c12.8 44.8 38.4 89.6 76.8 121.6-38.4 12.8-64 38.4-64 70.4 0 44.8 70.4 83.2 153.6 83.2 76.8 0 140.8-32 153.6-70.4h19.2c12.8 38.4 76.8 70.4 153.6 70.4 83.2 0 153.6-38.4 153.6-83.2 0-25.6-25.6-51.2-64-70.4 38.4-32 64-76.8 76.8-121.6 25.6 44.8 57.6 64 70.4 57.6 25.6-12.8 19.2-89.6-12.8-172.8-25.6-64-64-108.8-89.6-121.6v-12.8c0-25.6-6.4-44.8-19.2-64V384c0-12.8 0-19.2-6.4-32C780.8 179.2 678.4 51.2 512 51.2c-166.4 0-268.8 134.4-275.2 300.8-6.4 6.4-6.4 12.8-6.4 25.6v6.4c-12.8 19.2-19.2 38.4-19.2 64v12.8c-25.6 12.8-64 57.6-89.6 121.6z m0 0" p-id="8494" data-spm-anchor-id="a313x.search_index.0.i8.59213a81FvfRQQ" class="selected" fill="#5e767a"></path></svg>