<svg t="1747938798245" class="icon" viewBox="0 0 1030 1024" version="1.1" xmlns="http://www.w3.org/2000/svg" p-id="5251" width="200" height="200"><path d="M582.65528 282.816926l-133.631833-0.127999 7.48799-48.44794c9.087989-58.559927 31.295961-118.335852 59.455926-160.0638A165.055794 165.055794 0 0 1 654.65519 0.12928c45.503943 0 89.279888 17.983978 119.99985 49.343938 29.375963 29.951963 45.247943 70.591912 44.479944 114.431857-2.239997 118.719852-88.639889 118.719852-125.503843 118.719852l-33.983958-0.256-9.343988 0.064c-22.527972 0.32-45.055944 0.384-67.647915 0.383999z m-31.99996-84.159894l31.99996 0.064c22.143972 0 44.095945-0.064 66.111917-0.448l10.879986-0.064 33.983958 0.32c39.87195 0 40.767949 0 41.279948-36.159955 0.511999-21.695973-6.399992-39.87195-20.223974-54.015932a84.287895 84.287895 0 0 0-60.031925-24.12797c-16.38398 0-47.231941 4.799994-68.991914 36.991953-13.823983 20.479974-26.111967 47.99994-35.007956 77.439904z" fill="#F7BC39" p-id="5252"></path><path d="M394.303515 282.816926c-22.527972 0-44.991944-0.064-67.519915-0.447999l-9.471989-0.064-33.919957 0.256c-36.927954 0-123.391846 0-125.503843-118.719852A157.567803 157.567803 0 0 1 202.367755 49.409218 168.767789 168.767789 0 0 1 322.367605 0.06528a165.119794 165.119794 0 0 1 138.751827 74.111907c28.159965 41.663948 50.367937 101.503873 59.391925 159.9998l7.487991 48.44794-133.695833 0.191999zM317.311611 198.209032l10.879987 0.064c21.951973 0.32 44.031945 0.447999 66.047917 0.448l31.99996-0.064a294.911631 294.911631 0 0 0-34.943956-77.439904 81.279898 81.279898 0 0 0-68.991914-36.991953c-22.975971 0-44.863944 8.767989-59.903925 24.12797a72.06391 72.06391 0 0 0-20.415974 54.015932c0.639999 36.031955 1.407998 36.159955 41.087948 36.159955h0.32l33.919957-0.32z" fill="#F7BC39" p-id="5253"></path><path d="M933.886841 1023.936H49.151947V451.200716h884.734894v572.735284zM161.343806 911.74414H821.758981V563.392576H161.343806v348.351564z" fill="#F9D84E" p-id="5254"></path><path d="M968.894797 563.904575H0.000008V249.344968h968.894789v314.559607zM112.127868 451.776715h744.639069V361.472828H112.127868v90.303887z" fill="#F9D84E" p-id="5255"></path><path d="M445.247451 240.768979h97.343879V1024H445.247451z" fill="#F7BC39" p-id="5256"></path></svg>