<svg t="1747651731209" class="icon" viewBox="0 0 1024 1024" version="1.1" xmlns="http://www.w3.org/2000/svg" p-id="5087" width="200" height="200"><path d="M467.2 560m-432 0a432 432 0 1 0 864 0 432 432 0 1 0-864 0Z" fill="#FFDA00" p-id="5088"></path><path d="M512 0C230.4 0 0 230.4 0 512s230.4 512 512 512 512-230.4 512-512S793.6 0 512 0z m0 976C256 976 48 768 48 512S256 48 512 48 976 256 976 512 768 976 512 976z" fill="#111111" p-id="5089"></path><path d="M716.8 326.4c3.2-6.4 3.2-12.8 0-19.2-3.2-6.4-9.6-12.8-16-12.8-28.8-6.4-38.4 22.4-70.4 99.2-12.8 28.8-25.6 60.8-38.4 92.8 3.2-54.4 12.8-134.4 28.8-240 3.2-12.8 3.2-19.2 3.2-22.4 0-6.4 0-12.8-6.4-19.2-3.2-6.4-9.6-6.4-19.2-6.4-83.2 6.4-153.6 217.6-176 326.4-16-54.4-28.8-150.4-6.4-188.8 6.4-9.6 3.2-22.4-6.4-28.8s-19.2-6.4-28.8 0c-137.6 121.6-115.2 320-115.2 342.4 0 73.6 60.8 131.2 131.2 131.2h236.8c73.6 0 131.2-60.8 131.2-131.2v-6.4c-32-134.4-60.8-291.2-48-316.8z m-80 406.4h-236.8c-48 0-86.4-38.4-86.4-89.6 0 0-19.2-134.4 48-243.2 0 70.4 19.2 156.8 44.8 185.6 16 19.2 32 19.2 38.4 16 9.6-3.2 16-12.8 16-22.4 0-57.6 60.8-249.6 112-316.8-19.2 128-35.2 268.8-22.4 313.6 3.2 9.6 9.6 16 19.2 16s16-3.2 22.4-9.6c32-57.6 60.8-121.6 80-172.8v-3.2c9.6 80 35.2 182.4 51.2 240 0 48-38.4 86.4-86.4 86.4z" fill="#111111" p-id="5090"></path></svg>