<svg t="1747938205434" class="icon" viewBox="0 0 1024 1024" version="1.1" xmlns="http://www.w3.org/2000/svg" p-id="2901" width="200" height="200"><path d="M328.96 221.44a471.3472 471.3472 0 0 0-230.656 59.904A471.3472 471.3472 0 0 0 38.4 512c0 261.5552 212.0448 473.6 473.6 473.6a471.3472 471.3472 0 0 0 230.656-59.904 471.3472 471.3472 0 0 0 59.904-230.656c0-261.5552-212.0448-473.6-473.6-473.6z" fill="#EE7C3D" p-id="2902"></path><path d="M512 120.32a391.68 391.68 0 0 1 276.9664 668.6464A391.68 391.68 0 0 1 235.0336 235.0336 389.12 389.12 0 0 1 512 120.32m0-81.92C250.4448 38.4 38.4 250.4448 38.4 512s212.0448 473.6 473.6 473.6 473.6-212.0448 473.6-473.6S773.5552 38.4 512 38.4z" fill="#333333" p-id="2903"></path><path d="M512 711.68a40.96 40.96 0 0 1-40.96-40.96V227.84a40.96 40.96 0 0 1 81.92 0v442.88a40.96 40.96 0 0 1-40.96 40.96z" fill="#333333" p-id="2904"></path><path d="M512 796.16m-40.96 0a40.96 40.96 0 1 0 81.92 0 40.96 40.96 0 1 0-81.92 0Z" fill="#EE7C3D" p-id="2905"></path><path d="M512 755.2a40.96 40.96 0 1 0 40.96 40.96 40.96 40.96 0 0 0-40.96-40.96z" fill="#333333" p-id="2906"></path></svg>