<svg t="1751033023160" class="icon" viewBox="0 0 1024 1024" version="1.1" xmlns="http://www.w3.org/2000/svg" p-id="5983" width="200" height="200"><path d="M250.955747 296.466659a439.212235 439.212235 0 0 0-169.208386 320.369583c-11.359489 210.934508 179.095941 421.645026 478.314476 406.349715 215.190316-4.959777 386.094626-182.711778 382.606783-397.934093-1.791919-152.505137-172.024259-176.88804-95.643696-381.390838 0 0-117.082731-38.430271-191.479384 151.737172 0 0-141.593628-102.523386-39.9982-395.566199 0 0-357.743902 153.465094-263.444145 478.090485 0-0.127994-111.738972-25.214865-101.147448-181.655825z" fill="#E54116" p-id="5984"></path><path d="M189.838497 820.379083h39.454225v-105.915234h122.010509v105.915234h39.454225v-239.285232h-39.454225v99.963501H229.292722v-99.963501H189.838497v239.285232z m354.768036-243.957022a108.8911 108.8911 0 0 0-87.068082 35.870386 145.913434 145.913434 0 0 0 0 177.368018 124.602393 124.602393 0 0 0 173.912174 0.319986 145.721443 145.721443 0 0 0 0-177.943993 110.651021 110.651021 0 0 0-87.068082-35.486403l0.22399-0.127994z m0 34.494448a70.908809 70.908809 0 0 1 57.629406 23.806928 102.395392 102.395392 0 0 1 19.903105 66.365014 99.291532 99.291532 0 0 1-19.903105 65.661045 71.452785 71.452785 0 0 1-57.629406 23.806929 70.428831 70.428831 0 0 1-58.045388-24.798884 117.402717 117.402717 0 0 1 0-129.690164 71.260793 71.260793 0 0 1 58.045388-25.150868z m135.833887 3.711833h78.844452v205.750741h39.454225v-205.750741h78.844452v-33.534491h-197.143129v33.534491z" fill="#FFFFFF" p-id="5985"></path></svg>