<svg t="1747646671042" class="icon" viewBox="0 0 1024 1024" version="1.1" xmlns="http://www.w3.org/2000/svg" p-id="26067" width="200" height="200"><path d="M960 398.7c-0.1-0.4-0.4-0.7-0.6-1l-4.6-7.7c-2.9-2.1-5.8-7.6-9-0.2-3-1.4-5.9-3.3-9.6-2.6-6.1 1.1-12.3 2-18.5 3-3 0.2-6.3-1.5-8.8 1.4-3.8 1-5.3-5.3-9-3.3-8.2 4.5-17.8 3.6-26.2 6.9-1.8 0-3.5 0.1-5.3 0.1-6-0.8-11.9-0.2-17.6 1.7-1.2-1.6-2.4-1.6-3.7-0.2-2.1-1.4-3.6-1.6-3.4 1.6-1.2-0.3-2.4-0.6-3.5-0.9-4-1.4-8.1 0-12.2-0.1-4.3-0.1-9.2 1.4-12.2-3.6 0.1-0.5 0.4-0.8 0.8-1-0.3 0.3-0.6 0.7-0.8 1 3.9-1.4 8.5-0.7 12.3-4.4-3.7-1.2-6.3 0.1-9 0.4-20.5 1.6-41.1 2-61.7 2.1h-24.7c-16.3-0.3-32.5 3.4-48.9 1.2-6-5.7-12.7-6.4-16.6-1.7 0 0 0-0.1 0.1-0.1-3.4-1.3-6.2-5.9-10.5-1.8-7 1.9-7.1-1.6-5.3-6.6-2.5-3.5-6-1.6-9.1-1.6-7.2-1-13.7 2.9-20.8 3.1-2.9 1.1-6.5-1.6-9 1.6-2.2-0.6-3.3 1.6-5 2-5.1-2.9-10.2-5.4-15.9-1.4-8.4-1.9-16.6-6.7-25.2-0.6-0.5-0.2-1-0.1-1.3 0.4-1.8-0.6-3.5-1.1-5.3-1.7l-24.9-0.3c-0.6-0.1-1.1 0-1.5 0.3-3.5 0.1-6.9 0.1-10.4 0.2-3.5-0.3-7.1-1.1-10.5 1-2.2-3.8-3.7 0.2-5.5 0.5-1.2-0.2-2.4-0.4-3.6-0.5l0.4 0.3-0.2 0.5c-0.1-0.1-0.3-0.2-0.4-0.2 0.1-0.2 0.1-0.4 0.2-0.6-3.6-6.1-7.2-6.1-10.6 0.1-1.8 0.3-4-0.9-5.3 1.4-1.7 1.4-3.7-2.3-5.3 0.4-0.4-0.2-0.8-0.3-1.2 0-4.6-3.3-7.7 0-11 2.6-3.4-0.9-6.8-1.7-10.2-2.6-0.2-1.7-0.3-3.3-0.5-5 0.1-0.5 0.2-1.1 0.3-1.7 2.4-2.1 7.8 2.9 8.3-3.6 3.4-4.1 9.2 0.5 12.7-3.5 2.7 0.5 5.1-0.1 7.1-2 4.8 3.5 8.6 1.3 12.2-2l5.1 0.6c5.5 4.7 10.8-1.5 16.2-0.4h17.5c3.2 1.1 6 0 8.8-1.4-0.4 3 1 3.9 3.9 3.8 3.9-0.2 3.8-2.5 3.3-5.3 1.7 0 3.5-0.3 5.1 0 3 0.6 5.4-1.3 3.2-3.1-2.5-1.9-7.1-1.8-10.2 1.3-3.3-2-5.6 2.6-8.7 1.3-0.6-0.9-1.4-2.7-1.6-2.6-6.9 2.5-14.6-0.6-21.4 2.9h-14.1c-2.4 0.4-5.4-1-7.1 2-4.4-1.8-8 2.5-12.3 1.6-2.9-2.6-5.9-2.5-8.8-0.1-5.8-3.5-10.4 3.2-15.9 1.8-3.5-0.9-6.9 0-10.1 1.3-2.5-1.8-5-2.2-7.6-0.2-2.3 0.2-4.6 0.5-6.9 0.7-2.4 0.9-4.9 1.7-7.3 2.6-2.3 0.6-4.9-2.8-6.9 0.5-2.3 0.1-4.7 0.2-7 0.4-2.9 0.9-6.7-3.9-8.8 1.6-1.7-0.1-3.4-0.3-5.2-0.4-5.9 0.8-11.2 6.7-17.9 2.2-0.9-0.6-2.9-0.3-3.6 1.4-1.8 2.4-4.6 1.6-6.9 2.3-3.1 2.6-7.7 0-10.6 3.1-3.9-2.4-8.3 0-12.3-1.5-2.9 2.9-7.6 0.3-10.3 3.5-5.3 0-10.7-0.1-16-0.1-1.5-4.1-10.6 2.2-9-6.6 1.3-7-2.5-6.4-7-3.9-0.1 0.2-0.3 0.3-0.5 0.4 0.2-0.1 0.3-0.3 0.5-0.4-5.3 0.9-10.8-1.2-15.9 1.7-2.6-0.2-5-0.1-7.1 1.8-3 0.4-5.9-3.4-8.9-0.1v-0.1c-2.3 0.1-4.6 0.3-7 0.4-16 0-31.8 2.4-47.6 5-3.8-0.6-7.6-0.8-11 1.6-1-1.5-5.3-0.8-3.9-3 2.6-4.1 1.5-11.8 9.5-11.3 3.9-2.2 9.5-0.2 12.4-4.9 2.7-1.1 1.6-7.5 6.8-4.9 3.4 3.1 3.2-2.7 5.5-2.3 3.3-0.5 7.2 2.3 9.8-1.5 3.2-4.7 6.8-8.9 11.6-12.1 0.1 0 0.7-0.1 0.7-0.1l0.7 0.1c4.6 6 7.2 3.7 9.1-2.1h0.8l0.8-0.3h1.8c0.4-0.3 0.8-0.4 1.2-0.5-0.4 0.2-0.8 0.3-1.2 0.5 1.1 0.1 2.2 0.3 3.3 0.4 8.2 3 16.5 1.3 24.8 0.5 1.8 0.4 3-0.5 3.8-1.9 13.3 2.3 15.4 0.9 13.8-8.9-2.2-0.8-3.5 0.8-5.1 1.8-11.4-1.3-22.2 4.3-33.6 3.1-2.4 0.1-4.7 0.2-7.1 0.3-2.7 1.7-6.3-1.7-8.8 1.5-2.1 0.6-6-1.9-5.8 3.2-4.7-0.2-9.5-3.9-14.2 0.2l-11.7 0.6c-2.6-0.5-5-0.1-7.1 1.5-0.6 0-1.2 0.1-1.7 0.1-9.1 0.4-9.1 0.4-10.6 3.3-0.1 0.5-0.2 0.9-0.2 1.4-4 2-8.1 3.8-12.3 0.4-3.1-4.5-6.2-2-9.4-0.6-0.4 0-0.8 0.2-1.1 0.5-2.6-2.5-5.5-2.1-8.6-1.3-5.1-0.3-9.9 0.9-14.6 2.7-2.1-0.3-3.8 0.2-4.9 2.2-1.7 1.9-7.4 0-5.4 5.6-1.4 6.4-1.5 11.4 7.4 6.9 0.9-0.5 2.2-0.1 3.3-0.1-0.1 1.7-0.1 3.4-0.2 5.1-2.2 0.6-4.5 1.1-6.7 1.7l-0.1 0.7c0.1-0.2 0.1-0.5 0.2-0.7-6.5-2.2-12.9 5.8-19.5 0.2-3.8-1.7-7.2 2.2-11.2 1-0.8-0.3-1 2.9-1 4.6-0.1 0.5-0.1 1 0.1 1.4-1.6 1.4-2.4 3.1-2.6 5.1-2.3-1.3-3 1.6-4.7 1.8-2.1-2-5.3-3.1-6.5-0.5-1.6 3.5 2.1 3.9 4.7 4.3 0.6 1.1 1.2 2.2 1.7 3.3-0.6 0.5-1.1 1-1.7 1.4l0.3 0.4-0.3 0.4c-0.1 0-0.2 0-0.4-0.1 0.1-0.3 0.2-0.5 0.3-0.8-2-2.2-4.9-0.2-7.1-1.4-1.3-2-2.7-3.9-5.2-1.5-5.2-0.7-12.7 4.4-14.2-5.4-5.8 4.9-5.8 4.9 4.9 12.4 0.7 1.1 1.5 2.2 2.2 3.3-0.1 0.6-0.2 1.1-0.2 1.7l0.5-0.2 0.4 0.3c0 0.2-0.1 0.3-0.1 0.5-0.3-0.2-0.6-0.4-0.8-0.6-0.7 3-2.7 6 0.2 8.9-0.9 2-5 4.3 0.2 6 2.9 0.9 4.5 1.4 2.6 5.1-1.4 2.8 0.8 5.8 2.2 8.5 0.9 2.6 3.5 1.6 5.2 2.4 0.2 1.5 0.3 3 0.5 4.5-0.2 0.6-0.4 1.1-0.6 1.7-3.3 4.8 3 3.5 3.7 5.8-0.1 0.5 0 1 0.3 1.4-0.3 0.4-0.4 0.8-0.3 1.3-4-0.5-8-0.9-12-1.4-6.4-4.3-9.7-2.9-9.5 5.1-1.3 2.8-5.7 0-6.5 3.7-2.6 0.4-4.8-3.5-7.9-0.3 4.9 1.9 6.4 6.5 8 10.9-2.7 3.6-0.2 6.5 1.2 9.5-0.6 5.4 1.6 6 5.6 3 0.6 0.5 1.2 1 1.9 1.5-1 3.8 0.5 6.5 3.8 8.5-1.2 3.2 2.6 3.5 3.2 5.6-1.4 6.2 2.6 6.1 6.8 5.9l0.3 3c0.2 3.9 3.5 4.2 6 5.6 0.9 2.1 2.3 4.2 0 6.2-5.1 4.3-5.2 4.5 0.9 8 2.4 1.4 1.4 4.3 3.4 5.6 1.3 1.5 2.6 3.1 3.8 4.6-0.4 6.2 1.9 10.7 7.3 14.3 3.9 2.7 6.9-3.7 10.3-0.1 1.1 1.2 2.1 2.3 3.2 3.5 0.1 1.2 0.2 2.3 0.3 3.5-8.6 2.2-0.6 7.1-1.7 10.6-0.8 3 1.9 8.6-5.1 6.9-6.8-2.1-7.6-1.4-6 5.7 2.4 5.9 7.3 1.9 11 2.8 1.9-0.4 3.8-2.4 5.5 0.3-0.7 1.1-1.5 2.3-2.2 3.4-4.7 2.1 1.7 6.6-1.9 9-5.1 2.5-2.9 5 0.1 7.4 1.8 2.9 3.6 5.7 5.4 8.6l0.9 3.3c-3.5 2-3 4.5-0.7 7.1 3.3 3.8-3.7 8.9 1.6 12.4 1.2 1.9 1.9 4.3 4.9 3.7-0.6 2.4 1.4 3.5 2.4 5.1-0.7 4 2.2 5.5 5 7 1.1 0.1 2.3 0.2 3.4 0.3 4.6 0.6 7.5 3.5 10 7 3.4 2.1 1.8 10.4 9.2 7.4-0.2 0.5-0.1 0.9 0.4 1.1-3.3 5.1-2.3 7.6 4.1 7.2 2-0.1 4 0.3 6 0.4 0 0.4 0.1 0.9 0.3 1.3 0.3 0.4 0.5 0.8 0.7 1.2-0.2-0.4-0.5-0.8-0.7-1.2 0.6 2.5-3.8 3.9-1.3 6.8 6.3 4.1 12.7 8.2 19 12.3 1.9 0.6 1.6 2.4 2 3.7 2.3 4 5.6 1.4 8.5 1.3 1.7 0.3 3.4 0.6 5.2 0.8 0 0.5 0.1 0.9 0.4 1.3 1.4 2.8 3.4 4.4 6.8 3.4 2.4 0.1 4.9 0 7-1.4 1.6 1.9 3.4 2.3 5.5 1 3.6-0.5 8.4 4.2 10.5-2.5 0.6 0 1.1-0.1 1.7-0.4 3 0.4 5.7 2.3 8.8 1.5 3 0.3 6 0.6 7.2-3.1 2.9-0.1 5.7-0.2 8.6-0.4 8.9-1.4 18.4 0.2 26.5-5.2 1.7 3.5 3.4 1.7 5.2 0 2.1-0.2 1.8-1.8 1.9-3.2 2.3 0.5 4.7 1 7 1.4 3-0.1 5.9-0.2 8.9-0.2 2.9-0.5 5.8-1.1 8.7-1.6 4.4-2.7 9.4-1.7 14.1-1.8 5.1 0.1 6.6-4.1 8.8-7.3 3.2 1.4 6.7 4.5 8.8-1.4 2.4 0.4 4.8 1.4 7.1-0.3 1.9-0.2 3.3 3.1 5.4 0.7 2.9-1.1 6.4-1 8.5-3.9 1.9-2.2 4.2-3.6 7.2-3.6 2.9 3.1 5.8 2 8.8 0.2 5.9-1 12.1 1.6 17.8-1.6 7.9 1 15.2-2.5 22.9-3.4 5.9-0.7 12.1 1 17.8-1.7 4.6-3.6 12 0.8 15.7-5.4 5.6 4.1 10.3-1.2 15.5-1.6 3.7 2.7 7.3 0.7 10.8-0.4 1.8 1.1 3.7 2.3 3.7-1.4 3.1-4.8 9.3 0.8 12.5-3.7 0.5 0.1 1 0 1.4-0.4 1.8-0.1 3.5-0.2 5.3-0.3 1.8-0.6 3.6-1.1 5.4-1.7 2.1 0.9 3.7-0.1 5.2-1.3 1.8-0.5 3.5 1.7 5.3 0.1 2.8 0 5.3-0.2 5.1-4 2.5 0.4 2.8-1.7 3.8-3.1 2.3-0.7 4.6-1.5 6.9-2.2 2.1 0.3 4.6 1.1 3.7-2.7 1.7-0.3 3.4-0.5 5-0.8 5.5 1.8 10.9 1.3 15.9-1.6h10.6c3.5-1 7-2.2 10.6-0.1 5.5-0.4 12.2 5.3 16.1-3.2 2.4 0.6 4.7 2.7 7.1 0.2 4 0.4 6.8-2.6 10.2-3.7 1.8 3.2 4.5 1.7 7.1 1.3 6.9 0.6 3.5-2.9 2.2-5.6 0.3-0.2 0.4-0.5 0.3-0.9 3.6-1.1 2-6.6 6.1-7.2 1.6 1.4 3 3.5 5.6 1.8 1.5-0.1 2.6-0.8 3.4-2.2 3.5 5.4 5.7-1.1 8.6-0.9 3.3 2.8 5.9-2.3 9.1-0.7 1.2 1.7 0.1 5.3 3.6 4.8 1.8-0.3 3.3-1.4 4-3.8 1.3-4.3 3.4-8.3 8.2-10.1 4.2 0.7 5.9-1 5-5.1l2.1-1.8c1.8 0.5 3.5 1 5.3 0 2.1 0.2 4.1 0.5 5.7-1.4 2.1 0.3 4 0.3 4.8-2.2 2.5-1 6.8 2.4 7.4-3.1 10.9 1.8 19.2-7.1 29.7-7.1 6.8 4.2 5.7-4 8.8-5.6 4.5-0.6 8.9 4.4 14.5-0.2-5.6-1.8-7.3-6.1-9.2-10.3V571c1.4-1.7 2.8-3.4 4.3-5 3.3-2.9 7.5-3.2 11.6-4.1-0.1-0.4-0.2-0.9-0.2-1.3 0.1 0.4 0.2 0.8 0.2 1.3 6.4 0.7 2.4-4.5 3.9-6.7 2.1-0.8 4.6-1.2 6.3-2.5 8.1-6.8 22.7-12.4 32.8-12.3 1.6 0 2.3-1.6 3.4-2.2 4.5-2.4 4.6-7.3 6.7-11.1 2-1.9 3.3-4.2 3.6-6.9 0.8-0.4 2-0.5 2.2-1.1 3.5-11-6-4.6-9.1-6.8 0.1-0.5-0.1-1-0.5-1.3 1.7-2.4 3.4-4.8 5.1-7.1 2.4-1.3 4.9-2.6 7.3-3.9 5.4-1.6 13.7-0.6 9-10.8-0.5-1 1.1-3 1.7-4.6 3.4-0.1 6.8-0.2 10.1-1.9 2.2-1.1 2.7-2.9 1.7-4-5.9-6.7 2.5-14.1 3.5-14.3 9.7-2.1 12.9-8 12.7-16.9 1.3-0.3 2.7-0.5 4-0.8-2-0.7-3.9-1.5-5.9-2.2-3.6-3.3 2-2.5 1.9-4.2 3.1-2.2 6.2-4.4 9.3-6.7 13.3-1.4 26.3-3.9 38.2-10.4 0.8-0.5 3.2 0.3 2.3-2.4-2.4-9.1 4.1-15.3 9.1-22.1zM538.8 652.5z m-220.3 42.4l-0.1-0.1h0.2s0 0.1-0.1 0.1z m215-306.6z m-3.2 27.6c-0.1 0.1-0.1 0.2-0.2 0.3-0.1-0.1 0-0.2 0.2-0.3z m126.6 187.3v0.1s-0.1 0 0-0.1c-0.1 0.1-0.1 0.1 0 0z m-66.6-174.8c-0.2-0.1-0.4-0.3-0.6-0.4h0.2l0.4 0.4zM186.1 615.2c-0.2-0.5-0.2-0.8-0.1-1.1 0.1 0.3 0.3 0.7 0.6 1.2-0.2 0-0.3 0-0.5-0.1z m-30.3-102.7v-0.1c0.1-0.1 0.3-0.2 0.5-0.3-0.3 0.1-0.4 0.2-0.5 0.4z m187.3-67.9l0.2 0.2h-0.2v-0.2s0-0.1 0 0c0-0.1 0-0.1 0 0zM215.8 480c0-0.1 0.1-0.2 0.1-0.3 0.5 0 0.2 0.4-0.1 0.3z m335.4 111zM260.4 479.6v0.1l-0.1 0.1c0-0.1 0-0.1 0.1-0.2-0.1 0 0 0 0 0z m73.9 0.3c0.1 0 0.1 0.1 0 0.1v-0.1z m199.3 58.2c-0.1 0-0.1-0.1 0 0-0.1-0.1-0.1-0.1 0 0-0.1-0.1 0-0.1 0 0 0-0.1 0 0 0 0z m-37.1 12.2h0.1-0.1v0.2c-0.1-0.1-0.1-0.1 0-0.2-0.1 0.1-0.1 0.1 0 0 0 0.1 0 0 0 0z m12.3 10.5s-0.1 0 0 0c-0.1 0-0.1 0 0 0-0.1 0-0.1 0 0 0-0.1 0-0.1 0 0 0z m-35.2-26.3c0.1 0 0.1 0.1 0.2 0.1h-0.2v-0.1z m77.5-6.3v0z m8.7-27.2c0-0.1 0.1-0.1 0.1-0.2 0 0.1 0 0.1 0.1 0.2h-0.2z m-63.3-5.3v-0.2c0.1 0.1 0.3 0.1 0.4 0.2-0.1-0.1-0.3 0-0.4 0z m-222.1 51.2s0-0.1 0 0c0-0.1 0-0.1 0 0 0-0.1 0-0.1 0 0 0-0.1 0 0 0 0z m51.1 22.8z m-8.8-32v0.9c-0.1-0.3-0.2-0.5-0.4-0.8 0.1-0.1 0.3-0.1 0.4-0.1z m12.2 30.1v0.2c-0.1-0.1-0.2-0.1-0.4-0.2h0.4z m17.6-7s-0.1 0 0 0c-0.1 0-0.1 0 0 0z m71.6-27.6c-0.1 0.1-0.2 0.1-0.2 0.1s0.1 0 0.2-0.1z m-45-16.2l-0.1-0.1s0.1 0 0.1 0.1c0-0.1 0-0.1 0 0z m-107 43.9z m43-15.9h0.5l-0.1 0.1c-0.2 0-0.3 0-0.4-0.1z m50-45.7h0.1v0.2l-0.1-0.2zM238.5 540c-0.7 0.9-1.4 1.2-2 1.3 0.8-0.6 1.4-1.2 1.8-1.6 0 0.1 0.1 0.2 0.2 0.3z m95 61.2c-0.6-0.1-1.1-0.3-1.6-0.5 0.5 0.1 1 0.3 1.6 0.5z m11.3-19.1h0c0.1 0 0 0 0 0z m222.9-70.6c-0.1 0.2-0.2 0.1-0.4 0h0.4zM380 496c0-0.1 0-0.1 0 0 0-0.1 0-0.1 0 0 0-0.1 0-0.1 0 0z m215.2 40.3s0 0.1 0 0c0 0.1 0 0 0 0z m-391.4 19.3c0-0.1 0-0.1 0 0v-0.1 0.1z m253.7-5.3c0.1 0 0.1 0 0 0 0 0 0.1 0 0.1 0.1 0-0.1 0-0.1-0.1-0.1z m121.7 19.4c0.1 0 0.1 0 0 0z m-8.8-80.9l-0.3 0.3 0.2-0.2 0.1-0.1z m-216.7-7.4v0.2l-0.1-0.1 0.1-0.1z m-136 74.2c0-0.1 0.1-0.1 0.1-0.2l0.2 0.2h-0.3z m361.7 5.4c0-0.1 0-0.1 0 0h0.2-0.2z m-190.5-68.8s0.1-0.1 0 0h-0.1c0.1-0.1 0.1-0.2 0.2-0.3 0 0.1 0 0.2-0.1 0.3 0.1-0.1 0.1-0.1 0 0 0.1 0 0.1 0 0 0z m-128.7-12.4l-0.1 0.1h-0.1c0.1-0.1 0.2-0.1 0.2-0.1z m206.3 98.7c0.1 0 0.3-0.1 0.4-0.2l-0.3 0.6c0-0.2-0.1-0.3-0.1-0.4 0 0.1-0.1 0.1 0 0z m79.3-89.9c0-0.1 0-0.1-0.1-0.2h0.2c0 0.1 0 0.2-0.1 0.2z m-42.2-12.3v0.1c0-0.1-0.1-0.1-0.1-0.2l0.1 0.1zM449.2 462z m-70.7 141.1c-0.1 0-0.1 0 0 0-0.1 0-0.1 0 0 0z m77.4-36.9s0 0.1 0 0c0 0.1 0 0.1 0 0z m-60.8-90.8c-0.2 0.2-0.4 0.4-0.6 0.4 0.2-0.1 0.4-0.3 0.6-0.4 0-0.1 0 0 0 0z m-2.7 134.9c0.1-0.1 0.1-0.1 0 0 0.1 0 0.1 0 0 0z m88.8-137.5h-0.5-0.1 0.6z m-27 114.6z m24.6 24.7v0.4c-0.1-0.1-0.1-0.2-0.2-0.3 0.1 0 0.1-0.1 0.2-0.1z m-162.6 54.2c0.2 0.1 0.3 0.2 0.4 0.3h-0.4c0.1-0.1 0-0.2 0-0.3zM493 626.1s0 0.1 0 0c-0.1 0.1-0.1 0.1 0 0-0.1 0-0.1 0 0 0z m7-12.2v-0.2l0.1 0.1s-0.1 0-0.1 0.1c-0.1 0-0.1 0 0 0-0.1 0 0 0 0 0zM326.5 449.2c0.2 0.2 0.4 0.4 0.7 0.6h-0.9c0.1-0.2 0.2-0.4 0.2-0.6zM149.1 427c0 0.1 0 0.1-0.1 0.2 0-0.1-0.1-0.1-0.1-0.2h0.2z m40.7 185h-0.1 0.1c-0.1 0-0.1 0 0 0z m79.3 17.7v0.2c-0.1 0-0.1 0-0.2-0.1 0-0.1 0.1-0.1 0.2-0.1z m10.7 0.5c-0.1-0.2-0.1-0.3-0.2-0.5h0.3c0 0.2 0 0.3-0.1 0.5z m28 22.3z m14.2 7.1s0 0.1 0 0c0 0.1 0 0.1 0 0z m5.3-3.4s0-0.1-0.1-0.1h0.1v0.1z m65.9-21v0.5h-0.1c0-0.2 0-0.4 0.1-0.5z m34.5-22.7v-0.4c0.5 0.3 0.9 0.8 1.3 1.3-0.5-0.3-0.9-0.6-1.3-0.9z m-197.4 52.4c0 0.1 0 0.1 0.1 0.2-0.1 0-0.2 0-0.3-0.1 0 0 0.1 0 0.2-0.1z m72.5-245.1v-0.3l0.3 0.3h-0.3z m-74.4 14.6z m47.8 230.8c0-0.1 0-0.2-0.1-0.3v-0.2l0.1 0.1s0 0.1-0.1 0.1h0.1c0.2 0.1 0.1 0.2 0 0.3z m35.2 8.5s0.1 0 0 0c0.1 0.1 0 0.1 0 0 0 0.1 0 0 0 0z m51.3-26.2l-0.2-0.2h0.2v0.2zM522.9 635z m12.4-204.7z m3.5-1.6z m-289.3 14.9c-0.2-0.8-0.4-1.5-0.5-2.2 0.4 0.1 1 0.1 1.7 0-0.5 0.7-0.9 1.4-1.2 2.2z m132.4 207.2z m141-15.9zM473.5 434zM344.9 673.7c0 0.1 0 0.1 0 0 0 0.1 0 0.1 0 0z m238-49.3v0.1c-0.1 0-0.1-0.1-0.2-0.1h0.2z m-238 49.3z m121.7-16v0.2l-0.1-0.1c0-0.1 0.1-0.1 0.1-0.1z m151.6-43.9l0.1 0.1h-0.1v-0.1zM143.7 386.7c-0.2 0-0.3-0.1-0.4-0.1 0.1-0.2 0.3-0.4 0.5-0.6 0 0.3 0 0.5-0.1 0.7z m-6.5 147.6v0.1h-0.1l0.1-0.1z m465 85v-0.1 0.1z m16-5.4v0.1s-0.1 0 0-0.1c-0.1 0.1 0 0 0 0zM210.8 374z m-3.1 301.5h0.2v0.1c0-0.1-0.1-0.1-0.2-0.1z m324-26.4s0-0.1 0 0c0-0.1 0-0.1 0 0 0-0.1 0-0.1 0 0 0-0.1 0-0.1 0 0 0-0.1 0 0 0 0s0.1 0 0.1 0.1l-0.1 0.1v-0.2z m68.7-16c0 0.1 0.1 0.1 0.1 0.1-0.1 0-0.1 0-0.1-0.1zM626 389.2c0.3 0.2 0.3 0.5 0.2 0.8-1.6-0.4-2.8-0.7-3.8-0.8 0.5-1.1 2.3-1.1 3.6 0zM491.1 393c-0.1 0.1-0.3 0.1-0.4 0.2 0.1-0.1 0.2-0.2 0.4-0.2z m-218.5-6.7l-0.1 0.1s0-0.1 0.1-0.1zM588.1 327.8c3.5 0.1 7 0.3 10.5 0.4 3.6 2 7.1 1.8 10.6-0.2 1.7-0.1 3.5-0.2 5.2-0.3 6.1 3.2 11.9 0.2 17.8-0.9 5.3-0.2 10.6-0.4 15.9-0.7 4.3 1.4 8.1-1.4 12.3-1.6 5.5 3 11.4 1.7 17.2 1.7 2.3 0 2.9-1.3 2.2-3.3-2.9-1-6.6 3.5-8.9-1.3-2.6-1.1-4.8-0.4-6.7 1.5h-3.7c-4.6-5.5-10.2-3.9-15.8-2.1-5.1-2.4-8.9 0.1-12.5 3.3-1.1-0.6-2.1-1.2-3.2-1.9-2.4-3-4.9-5.8-7.5-0.2-5.2 0.1-10.1-4-15.5-1.3-2 0.3-3.8 0.7-3.6 3.3-5.1-2.1-10.4-2.3-15.8-1.5-8.3 1.2-16.8 1.6-26.6 7.1 11 1.4 19.6 0.8 28.1-2z" fill="#FF0000" p-id="26068"></path><path d="M679.9 323v-0.1s-0.1 0-0.1-0.1v0.2h0.1zM517.6 326.6c-3.7-0.8-6.7 3-10.5 1.6-2.2-0.2-4.6-1.3-6.2 1.3 0.8 0.3 1.5 0.6 2.3 0.8 0.5 1.6 0.9 3.2 1.4 4.8 4.8-4 10.4 3.1 15.2-1.2 0.6 0 1.1-0.2 1.5-0.6 2.1 1.7 3.9 0.7 5.5-0.9 2.3-0.2 4.5-0.4 6.8-0.6 1.8-0.1 3.6-0.1 5.4-0.2 7.6 3.1 6-3.3 7.1-6.9 3 0.3 4.1-0.9 3-4.2-1.8 1.4-3.4 2.7-5 4-2.1-0.2-3.6 1-5 2.3-3-0.1-5.9-0.1-8.9-0.2-1.2-0.3-2.6-2.8-3.5 0.2-3.2-0.1-6.1-0.2-9.1-0.2zM70.4 388.3c0.8-4-3.5-3.6-6.4-4.9 3.4 2.2 0 6.1 1.3 7.6 3.8 4.4 4.8-1.1 5.1-2.7zM656.9 358.5c-3.2-1.1-6 0.4-8.8 1.6-5.4-0.4-10.9-0.4-16.2 1-3.2 0.7-6.8-0.5-11.1 2.2h11.4c5.3 0 10.6 0.3 15.7-1.3 3.1 0.9 6-0.2 9-0.5 5.2-0.5 10.3-1 15.5-1.4-5.2-2.7-10.4-1.9-15.5-1.6zM318.3 352.6c-5.5 4.3-13.9-1.9-18.6 5.1-3.9-4.3-8.4-3-13-1.2-1.1 0-2.4-1.1-3.1 0.3-0.3 0.6-0.1 2.2 0.2 2.3 1.5 0.5 3.2 1.3 4.2-0.9 4.2 1 8.3 2.2 12.5 2.8 1.9 0.3 3.8-0.5 0.8-2.4 6.3 4 11.6 0.5 17.1-2.2 3.8 1.1 5-2.9 7.9-3.8-2.9-3.2-5.5-4.3-8 0zM777 321.2c-6.3-1.4-10.5-1.4-14.5 1.2 4.2 0.5 8.5 1.4 14.5-1.2z" fill="#FF0000" p-id="26069"></path><path d="M683.4 324.5c3 2.8 6 2.7 9.1 0.3h1.1c0.8 1.7 2.3 1.7 3.8 1.3 9-0.3 18 1.8 26.9-1.1 0.6 0.2 1 0 1.4-0.5 3.5 0 7-0.1 10.5-0.1 2.5 0.6 4.8 0.4 6.8-1.4 4.4 1.8 8.6 2.1 13.2-0.9-3.9-3-7.5-1.9-11.1-1.4-3.1-2.3-5.9 1.2-9 0.5-3.5 0-7 0-10.5 0.1-1.7 0.1-3.5 0.1-5.2 0.2h-9.1c-3.1 0.2-6.4-1.4-9.1 1.1l-0.7-0.3-0.5 0.5c-1.8 0.1-3.6 0.1-5.4 0.2-3.3-2.5-6.6-2.9-10-0.3-1.6-1.3-2.9-3.5-5.4-2.5-1.3 0.5-0.7 1.7-0.3 2.7 1.1 0.5 2.3 1.1 3.5 1.6z m16.9-1l0.7-0.7c-0.1 0.3-0.4 0.5-0.7 0.7zM345 342.7c2.9-0.2 5.7-0.5 8.6-0.7 5.3 0.3 9.9-1.8 14.1-4.7 2.8 1.8 5.4 4.7 9.1 1.7 1.6 0.1 3.3 0.1 4.9 0.2l0.3 3.3v1.7h-0.1c-2 0.1-3.8-0.5-5.7-1.1-3.8-1.2-5.5 0.4-3.4 4.4-1.6 0.1-3.9-0.6-4.2 1.8-0.2 1.7 1.9 2.9 2.9 2.5 1.6-0.6 6.4 1.3 4-3.7 0.9-0.1 1.8-0.2 2.6-0.3 2.1 2.1 4.9 0.9 7.4 1.5 1.8-0.1 3.6-0.2 5.3-0.2 4.2 0.1 7-2.7 10.3-4.6 6.1 6.5 11 0.2 16.3-1.5 3.6 2.8 5.6 1.2 6.9-2.5 1.2-0.6 2.3-1.2 3.5-1.9h1.7c0.6 0.6 1.1 1.2 1.7 1.8-1.8 1.3-2.1 3.7 0.2 3.1 2.9-0.7 6.3 1.7 8.7-1.2 4.2-0.9 9.5 2 12.5-3.4l8.7-0.6 12.3 0.3c1.9-0.2 3.9 0.7 5.4-1.2 3 0.7 5.8-3 8.9-0.6 4 0.5 7.8 0.9 6.6-5.2 1.4-0.3 3.5-1.5 2.6-2.5-1.7-1.8-4.1-1.1-6 0.6-0.6 0.1-1.1 0.2-1.6 0.4-4.8 0.4-9.8-1.5-14.4 1.5-1.1 0.1-2.2 0.3-3.3 0.4-3-2.2-4.3 4.3-7.4 1.5-5-3.2-9.1 1.2-13.7 1.8-2.7-1.7-5.7-1.9-8.8-1.8 0-0.5 0-1 0.1-1.5 3.9-3.8 11.1 0.8 14.1-5.5 1.4-0.1 2.9 0.2 3.6-1.6 2.1 1.3 4.3 2 6.8 1.6 1.8 2.3 3.6 1.5 5.3-0.1 4.1-1.1 8.7 1.7 12.5-1.6 2.2-0.1 4.5-0.2 6.7-0.4 2.6 0.4 5.3 1 7.3-1.6 3-1.9 6.6 1.7 9.5-1 0.9-0.3 1.9-0.6 2.8-0.9 2.4-0.3 5.2 1.5 7-1.5 1.5-1.5 4.5-1.4 5-4.8-3 0.6-5.7 1.1-8.4 1.6h-1.9c-2.5-0.1-5.1-1-7 1.4-3.5 0.1-7 0.1-10.5 0.2-6.1-0.3-11.8 0-14.4 6.9-2.8-1.2-5.6-1.8-8.4-0.2-1.3-2.4-3.6-0.9-5.4-1.4-1.8-2.7-4.5-2-7.1-1.8-3.9-1.4-6.9 2-10.5 2-2.3 0-4.7 0-7 0.1-7.4-1.7-12.8 4-19.5 5-1.2 0-2.4 0.1-3.6 0.1-5.3-1.2-10.6-3.1-15.8 0.2-2.5 0.1-5.3-1.8-7.3 1.3-1.8 0.5-4.1-0.7-5.2 1.7-0.6 0.1-1.2 0.3-1.8 0.4-2-1.9-4.2-2.7-6.9-1.7-4.5 2.1-10.6-0.9-14.2 4.4-4.9-2.6-9.4-0.1-14.1 1-3.5 0-7.3-1.7-10.4 1.5-2.4-1.2-4.7-1.6-7.1-0.1-4.5-0.9-5.9 1-4.9 5.3-0.2 0.7-0.4 1.5-0.6 2.2 5.1 1.5 10.3 4.3 14.4-2z m149.8-21.8c-0.1 0-0.2 0-0.3-0.1 0.1 0.1 0.2 0.1 0.3 0.1z m-158.3 22.7c0.2 0.1 0.5 0.2 0.7 0.3-0.2 0-0.5-0.1-0.7-0.1v-0.2z m6.5-1c-0.1 0.2-0.1 0.3-0.2 0.4 0-0.1 0.1-0.2 0.2-0.4zM577.4 365h7.4c4-3.1 9.2 0.1 14.3-2.2-5.4-3-9.8-1.7-14.2-0.8-2.4 0.4-4.7 0.8-7.1 1.3-1.4-2.2-3.5-1.5-5.5-1.3-2.5-0.7-4.9-0.6-7.1 1 1.3 2.7 3.7 1.6 5.3 2.3 2.4 3.6 4.6 0.4 6.9-0.3zM620.4 650.7c-0.9 0.2-1.7 2.3-1.9 3.6-0.3 1.7 1.1 2.8 2.6 2.8 1.9 0.1 2.2-1.5 2.1-3.1-0.9-1.1-0.3-3.9-2.8-3.3zM333.8 354.6c0.3-0.1 0.9-1 0.4-2.7-0.4-1.6-1.2-2.5-2.9-2.5s-2.8 1-2.6 2.6c0.2 2 1.7 2.8 5.1 2.6zM602.5 651c-2.7 1.2-5.7 1.8-7.7 4.5 2.9 1.3 5.1 0.1 7.3-1.1 1.8-0.2 4.1 1.4 5.3-0.6 0.5-0.9 0.2-3.1-0.6-3.8-1.4-1.5-2.7 0.9-4.3 1zM703.1 355.6c3.1 2.5 5-0.9 7.5-1.9-2.6-0.6-5.5-2-7.9 0.4-0.2 0.2 0.1 1.2 0.4 1.5zM357.6 371.6c-0.3 0.2 0.2 2 0.6 2.1 2.4 1 4.6 0.5 6.2-2.7-2.6-0.9-4.8-1.1-6.8 0.6zM790.5 322.4c0.6-0.1 1.2-0.7 1.6-1-0.5-1.7-1.6-2-2.6-1.7-0.6 0.2-1.5 1-1.5 1.4 0.1 1.6 1.5 1.4 2.5 1.3zM691.7 354.7c-0.8-0.1-2.4-0.1-1.8 1.7 0.4 1.1 1.1 1.9 3.1 1.7 0.4-0.4 1.5-1.2 1.6-2 0.2-2.1-1.9-1.2-2.9-1.4zM680.2 357.5c1.9 0.9 3.9 1.5 5.5-0.5 0.6-0.7 0.6-1.7-0.5-1.9-2.2-0.4-4.1 0-5 2.4zM559.6 373.5c2.1 0.2 4.2 1.2 6.9-0.7-3.3-3-4.9-0.2-6.9 0.7z" fill="#FF0000" p-id="26070"></path><path d="M365.4 345.9c-0.3-2.5-2.9-1.9-4.9-1.4-3.2-0.7-4.4 2.4-6.7 3.5h-7.3c-1.7 0.2-4.5-1.4-4.6 1.4-0.1 2.5 3 1.6 4.6 2.3 4.6 6.9 6.1-1.2 9.2-1.9 1.7-0.7 4 0.3 5.2-1.8 1.7-0.7 4.8 1 4.5-2.1zM837.1 390.9c1-0.8 3.1-0.3 3.2-2.1 0-0.4-1.6-1.1-2.6-1.4-1.1-0.3-2.3-0.1-2.6 1.4-0.2 1.5 0.6 2.1 2 2.1zM98.1 391.7v-0.2h-0.2v0.2c0.2 0.1 0.2 0.1 0.2 0zM106.5 390.9c0.2 0.1 0.4 0.2 0.5 0.3 3-0.1 4.6-2.3 2.6-4.2-2.3-2.3-6-3.8-8.2 0.9-1.9 0.5-3.1 1.6-3.2 3.6 2.9-0.1 5.9-0.2 8.8-0.3-0.2-0.1-0.3-0.2-0.5-0.3zM70.1 435.4c0-1.9-0.9-4.5-2.6-3.5-2.3 1.3-1.7 3.9 0.8 5.5 1.8 0.2 1.3 5 4 2.5 3.3-2.9-1.8-2.8-2.2-4.5zM276.1 358.2c-1.2 0.1-2.3 0.1-3.5 0.2-2.1-0.5-5.1-1.5-5.6 1.4-0.5 3.2 2.6 1.1 4 1.5 1.7 0 3.4 0 5 0.1 3.1 0.8 4.5-1.1 3.7-3.5-0.7-2.7-2.3-0.3-3.6 0.3zM276.1 664.9zM466.5 578.5s0 0.1 0 0c0 0.1 0 0.1 0 0zM466.5 578.6c0-0.1 0-0.1 0 0 0-0.1 0-0.1 0 0 0-0.1 0 0 0 0z" fill="#FF0000" p-id="26071"></path></svg>