<svg t="1747644773891" class="icon" viewBox="0 0 1024 1024" version="1.1" xmlns="http://www.w3.org/2000/svg" p-id="25356" width="200" height="200"><path d="M409.8 418.3zM954.5 560.6c10.2-9 3.7-19.2 1-29.1-0.9-4.6-0.6-10-7-11.2 0.4-7.6 0.3-14.6-10.7-10.5l-0.7 0.5c-0.2-6.1 7.6-13.3-2.5-18.1-0.1-1.1-0.5-2.2-1.1-3.1-4.5-7-11-4.9-17.4-3.9-1-1.1-2.1-2.3-3.1-3.4-3.2-7.5-9.9-1.9-14.5-4-15.2-4.4-30.3-8.2-46-11.1-12.9-2.3-27.3 2.8-39.1-6-0.6-0.7-1.3-1.1-2-1.2 0.5-0.2 0.9-0.2 1.2 0-2.8-3.8-7-1.6-10.7-1.6-17.5-1.7-35.4-1.1-52.2-7.5-3.6 0.2-7.3 0.3-10.9 0.5-27.7 4.6-55.4 3.3-82.3-3.5-17.4-4.4-35.6-5.1-52.5-6-15-0.8-34-11.2-48.6 4.5-0.4 0.4-4.5-2.7-6.8-4.2-3.9-9.2-11.3-4.3-15-1.8-4.9 3.3-8.8 4.3-14 2.7-11.2-11.4-28.1-4-40.5-12.1-1.7-1.1-4.3 3.2-5.1 6.2-0.1 1 0 2 0.4 2.9-2.9 4.3-5.8 3.5-8.6-0.1-5.6-4.6-11.3-2.7-17-0.1-9.9 4.3-18.5-5.2-28.3-2.8-1.1-0.5-2.3-1.1-3.4-1.6-2.1-7.6 6.3-9 9.2-14.4-6.8 4.3-10.1-7.3-16.3-2.3 2.3 9.4-7.8 9.3-11.1 14.4-16.7-9-34.6-0.6-51.7-3.3-9.7 4-19.4 0.5-29.1-0.2-11.5 3-22.7 6-35 2.5-5.8-1.7-11 2.5-14.9 7.2-2.2-1.1-4.5-2.2-6.7-3.4-1.2-0.6-2.1-0.6-2.9 0.1-0.1-0.1-0.2-0.3-0.2-0.4-1.5-0.7-2.8-0.6-4.2 0.3-17.7-1.3-32.8 8.1-49.4 11.4h-3.6c-14.1-3.2-28.2-1.9-42.3-0.7-1.4-3.3-3.5-5.8-7.3-6.1-5.4-1-11.7-3.3-10.4 6.5-2.4 3.2-7.2 5.1-9.2 3.1-13.2-13.5-23-3.9-33.2 3.9-15-12.7-21.8 6.3-30.9 10.4-8.6 3.9 0.2 17.1 5.6 25.2 0.1 4.8 0.1 9.5 0.2 14.3 11.4-0.8 10.7-9.8 12.2-17.4 1.9 4.7 4.2 9.2 6.8 13.5 0.9 1.4 2.1 2.6 3.3 3.6-0.1 5.8-1.2 11.2-8.1 14-2.2-2.2-4.3-4.5-6.5-6.8-3.5 8-6.8 15.9 7.5 15.1 0.8 0.9 1.7 1.8 2.5 2.7 8.8-2.8 2.1-14.9 10.7-17.9 0.2 8.3 0.3 16.5 0.5 24.8-0.3 3.5-0.7 7.1-1 10.6 2.5 3.8 4.9 7.6 7.4 11.4 1.4 4.5 3.3 9.4 8.8 8.5 4.2-0.7 1.9-5.7 2.8-8.7 1.1-3.8 2.4-7.5 3.6-11.2l1.1 0.5 1.2-0.1c6.6 12.4 9 28.5 27.1 30.9 0.5 0.1 0.8 0.8 1.3 1.2 0 2.9-0.7 6.3 3.9 6.3 3.2 2.4 4.8 7.3 10 6.7 2.5-1 4.9-1.9 7.4-2.9 9.4 16.8 19.1 5.4 28.7 0.2 6.6-2.3 7.1 2.1 7.4 6.7-4.4 13.9 5.5 6.3 10.1 6.8 3.2 2.3 6.3 5 10.8 3.6 3.8 2.3 7.4 6.1 11.5 6.7 7.3 1.1 18.1 6.2 17.2-9.1l24-3.9c7.7 10.3 18.5 7.1 28.6 6.6 6.4-4.3 0.5-13.3 6.8-17.6 13.7 8.4 15.3 0.4 14.5-10.7h7c0.1-1.4 0.1-2.8 0.2-4.2 2.4-0.1 4.4-2 6.7-2.7 0.3 1 0.5 2.1 0.8 3.1 1.6 4 4.4 6.1 8.3 6.5-0.3 1.6 0.1 3.1 1.5 4.5 4.6 3 10 9.4 10.4-2.9 0.2-4.6 3.9-5.2 7.7-5.2 3.8 9.4 11.1 3.1 16.8 3.8 3.8-0.9 7.7-1.9 11.5-2.8-0.3 4.4 0.1 8 6.1 6.7 4.6 3.5 9.5 1.2 14.3 0.6 5.3-0.4 13.9 13.9 15.2-3.5 0.9-1.4 1.5-2.9 1.8-4.5-0.3-5.7-1.7-11.2-3.4-16.6-1.5-2.2-3-4.3-3.8-6.5 0.1-2.3 0.2-4.7 0.4-7 0.6-1 1.5-2.1 2.7-3.2 0.6-1.4 1.2-2.7 1.5-4.2 0-0.1 0.1-0.3 0.1-0.4 1.1 0 2.2-0.1 3.3-0.1 0.3 2.7 0.7 5.3 1 8-0.6 0.4-1.1 0.8-1.7 1.2-1.4 5.3 2.7 8.3 5 12.1l3 7.2c3.6 2.6 7.2 3.2 10.6-0.3-0.6-5.3-1.2-10.6-1.8-16.3 6 0.8 11.1 1.5 16.2 2.1 0.1 0.6 0.3 1.3 0.4 1.9-0.3 0.4-0.7 0.7-1 1.1-1.4 3.6 0.3 6.4 2.4 9.1 0.8 0.7 1.6 1.3 2.5 1.9 0 1.1 0 2.2-0.1 3.3 3 6.5 4.9 16.8 13.6 4.1h6.1c1.4 2.1 2.9 4.1 4.3 6.2 3.8-1.5 6.1 13.4 11 1-7.9-9.9-2.4-21.3-3.6-32 0.6-0.7 1.2-1.3 1.9-2 3.5 4.7 3.6 12.5 11.7 13.1v0.4c3.2 5.7-1.6 11.3-0.2 17 11.5 5.2 9.6-6.9 14-10.8 0.7-6.8-2.3-13.4-1-20.2v-0.1c2 1 4 2.1 6 3.1 1.1 1.2 2.4 2.2 4 3.1 0.7 0.5 1.4 0.9 2.2 1.2l0.3 8.7c12.5 5.4 13.3-6.4 18-12.4 1.1-0.1 2.2-0.2 3.3-0.2 4.8 1.7 10.1 10.7 14.2-0.9 0.9 0.2 1.9 0.2 2.8 0.2l0.7-0.4c-1.2 8.3 6.1 11 10.7 11 6.1 0 4.3-6.4 3.3-10.7 2.4-0.3 4.7-0.7 7.1-1 5.5 2.7 11.5 2.5 16.6 0.5 8.2-3.2 10.1 1.8 12.2 7.4 0.4 1.9 0.3 4.8 1.4 5.4 1.8 1 4-0.2 4.8-2.6 4.4-3.4 3.4-8.5 4.3-13.1 2.1 2.5 4.1 5.1 6.2 7.6 10 12 20.3 0.9 30.4 0.1 2.7-0.2 6.1-6.6 8.1-1.3 9 24.2 10.6-4.3 15.4-2.1 7 0.4 4.7 12.3 13.4 9.1 3.3 1.5 6.6 3.2 10.2 0.9 1.7 3.4 5.3 1.9 7.8 3.1 0.3 2.8 0.9 7 4.5 5.1 5-2.6 1.4-8.3 2.4-12.6 6.8-0.3 18.9-2.5 19.5-0.7 6.3 18.6 17 7.2 26.2 4.8-1 14.6 6.2 12 14.6 7 1.8 4.3 5.4 6.3 9.7 7.3 5.9 9.6 11.1 19.5 24.1 7.2 7.5-7.2 18.8-2.1 20.7 3.3 5.2 14.7 12 6 18.9 3.8 2.9 4 6.7 6.2 11.7 6 6.4 1.9 6-6.2 10.5-7 11.1 14.4 13.2 1.8 17-5.7 1.2-1.4 2.4-2.7 3.6-4.1 20.1 0 10.6-11.8 8.8-20.6 0.1-0.3 0.2-0.6 0.4-0.9 2.9 0.4 5.8 0.7 8.7 1.1l-0.6 5.4c3 8.8 10 2 14.8 3.8-0.4-3.1-1.5-5.1-3.6-6.3zM81.6 485c0-1-0.1-2.1-0.2-3.2l1.8 2.4c-0.5 0.3-1.1 0.6-1.6 0.8z m32.3 60.3c-1.2 0.4-2.4 0.9-3.4 1.6 2.8-4.4 3.1-8.8 0.3-13.2 2.7 0 5.5-0.3 8.2-0.2h0.8c-7 2.2-7.9 6.6-5.9 11.8z m11-11.3c-0.1 0-0.1 0 0 0-0.1 0-0.1 0 0 0z m97 34c-2.7-0.2-5.2 0.5-7.3 2.2 0.1-2.4 0.7-4.9 1.1-7.3 1.2 1.8 3.2 3.3 5.5 4.6 0.3 0.2 0.7 0.3 1 0.3-0.2 0.1-0.3 0.1-0.3 0.2z m3.3-23.6c0.2-0.8 0.5-1.5 0.7-2.3 0.3 0.8 0.5 1.5 0.8 2.3-0.5-0.2-1-0.2-1.5 0z m12.8 53c-0.1-2.8-2-5-4.7-7-0.2-0.1-0.4-0.1-0.6-0.2 0.7-4.9-1.8-10.5 1.6-14.9 0.1 0.1 0.2 0.3 0.3 0.4 4 3.5 6.4 8.7 11.1 11.4-2.1 3.9-4.4 7.5-7.7 10.3z m11-47.2c0-0.1 0-0.1 0 0 0.7-1.8 1.5-3.4 2.4-4.9-0.3 2.6 0.1 5.2 0.7 7.8-0.7-1.3-1.7-2.3-3.1-2.9z m19.2 11.8c1.2-0.1 2.4 0.3 3.6 0.9-1.2-0.2-2.4-0.5-3.6-0.9z m33.1-0.2c-0.2-0.5-0.5-0.9-0.9-1.4 0.5-0.9 0.3-2.7 1.9-1.5 0.5 0.3-0.3 2-1 2.9z m34.3-9v-0.3h0.6c-0.3 0.1-0.5 0.2-0.6 0.3z m130.6-26.3c0.5 0 0.9 0 1.3 0.1-0.4 0-0.9-0.1-1.3-0.1z m474.1 9.7c0.3-1.6 0.5-3.2 0.6-4.9 0.4 1.7 0.4 3.4-0.6 4.9zM409.8 418.3z" fill="#ab9fdd" p-id="25357"></path><path d="M401.6 410.5c-1.2 0.4-3 3.2-2.9 3.2 3.1 3 6.8 4.5 11.1 4.7-0.8-4.7-0.8-10.3-8.2-7.9zM812.6 459.5c0.3 0.4 0.5 0.7 0.8 1.2-0.3-0.6-0.5-1-0.8-1.2z" fill="#ab9fdd" p-id="25358"></path></svg>