<svg t="1747641715353" class="icon" viewBox="0 0 1024 1024" version="1.1" xmlns="http://www.w3.org/2000/svg" p-id="12813" width="200" height="200"><path d="M769.597 525.909c1.291 132.878 125.137 177.014 126.564 177.674-1.125 2.992-19.845 62.994-65.354 124.945-39.361 53.498-80.094 106.773-144.379 107.844-63.214 1.125-83.525-34.886-155.797-34.886-72.244 0-94.806 33.815-154.589 36.012-62.005 2.196-109.273-57.751-148.962-111.11-81.083-109.079-143.006-308.218-59.782-442.604 41.254-66.754 115.063-109.024 195.212-110.15 60.934-1.017 118.494 38.263 155.686 38.263 37.302 0 107.213-47.184 180.665-40.267 30.77 1.18 117.149 11.527 172.567 86.985-4.364 2.662-103.068 56.022-101.833 167.297l0 0zM510.786 261.611c-7.164-50.478 19.543-102.959 50.066-135.923 34.063-37.137 91.54-64.751 138.997-66.508 6.066 51.438-16.194 103.068-49.105 140.234-32.965 37.109-87.01 66.013-139.958 62.197l0 0z" fill="#ab9fdd" p-id="12814"></path></svg>