<svg t="1747643307192" class="icon" viewBox="0 0 1287 1024" version="1.1" xmlns="http://www.w3.org/2000/svg" p-id="19961" width="200" height="200"><path d="M698.467263 601.279676c-118.799128-6.416887-232.395375 11.793198-341.048885 57.405127A639.954429 639.954429 0 0 0 88.429403 869.835078c1.387435-8.237896 2.688155-16.475792 4.24902-24.713687a592.261348 592.261348 0 0 1 4.856022-24.713687c22.979393-101.196046 59.746423-197.102496 117.238264-284.684335 58.965991-89.749707 134.667917-161.722901 234.216384-207.855117a561.911206 561.911206 0 0 1 203.345954-50.034378c15.001642-0.953862 30.089998-1.387435 45.698642-2.081153V61.654146l2.774871-2.081152 384.839804 379.116634-387.181101 377.7292V601.279676z" fill="#1296db" p-id="19962"></path></svg>