<?xml version="1.0" standalone="no"?><!DOCTYPE svg PUBLIC "-//W3C//DTD SVG 1.1//EN" "http://www.w3.org/Graphics/SVG/1.1/DTD/svg11.dtd"><svg t="1730959206434" class="icon" viewBox="0 0 1038 1024" version="1.1" xmlns="http://www.w3.org/2000/svg" p-id="6920" xmlns:xlink="http://www.w3.org/1999/xlink" width="202.734375" height="200"><path d="M598.054815 94.51125a62.590025 62.590025 0 0 1-28.706631 28.706631c-79.230302-28.37172-155.781318-25.175716-229.653049 9.568877l-38.275508-38.275508c98.999602-25.175716 197.884377-25.175716 296.635188 0z" fill="#DB8305" opacity=".906" p-id="6921"></path><path d="M301.419627 94.51125l38.275508 38.275508c7.023556 11.559203 10.209992 24.314517 9.568877 38.275508-23.807366-1.751104-42.94512-11.319982-57.413262-28.706631-33.471932-16.726397-58.992127-7.15752-76.551016 28.706631-11.377395 8.889487-24.132708 12.075923-38.275509 9.568877 12.477816-69.824096 53.93976-98.530727 124.395402-86.119893z" fill="#8B3500" opacity=".972" p-id="6922"></path><path d="M722.450217 171.062266c-7.176658 10.267405-16.745535 11.865408-28.706631 4.784439-18.372244-41.174878-47.078875-52.341757-86.119893-33.49107-11.195586 17.013463-27.137335 26.58234-47.844386 28.706631-1.28223-17.137859 1.913775-33.089177 9.568877-47.844385a62.590025 62.590025 0 0 0 28.706631-28.706631c70.560899-20.190331 112.022844 5.320296 124.395402 76.551016z" fill="#8C3601" opacity=".999" p-id="6923"></path><path d="M569.348184 123.217881c-7.655102 14.755208-10.851107 30.706526-9.568877 47.844385 20.70705-2.124291 36.648799-11.693168 47.844386-28.706631 65.35543 27.43397 113.199815 68.895915 143.533155 124.395402-82.053121-21.376871-158.604137-10.219561-229.653049 33.49107-15.884336 14.238489-25.453213 31.778241-28.706631 52.628823a240.657258 240.657258 0 0 0-43.059947 38.275508c-6.411148-7.195796-14.391591-10.3918-23.922192-9.568877-4.239013-45.050273-26.563203-78.541343-66.98214-100.473209-65.814736-24.362361-132.796876-29.146799-200.946418-14.353315 29.232919-51.356163 73.8813-92.818107 133.964279-124.395402 14.468142 17.38665 33.605896 26.955527 57.413262 28.706631 0.641115-13.960992-2.545321-26.716305-9.568877-38.275508 73.871731-34.744593 150.422747-37.940597 229.653049-9.568877z" fill="#FDE07C" p-id="6924"></path><path d="M291.85075 142.355635c-60.082979 31.577294-104.731359 73.039239-133.964279 124.395402a355.67516 355.67516 0 0 0-66.982139 38.275508c17.587596-49.42325 46.294227-90.894763 86.119893-124.395402 14.1428 2.507046 26.898113-0.67939 38.275509-9.568877 17.558889-35.864151 43.079084-45.433028 76.551016-28.706631z" fill="#DB8305" opacity=".884" p-id="6925"></path><path d="M607.623693 142.355635c39.041018-18.850688 67.747649-7.683808 86.119893 33.49107 11.961096 7.080969 21.529973 5.482967 28.706631-4.784439 42.964258 36.610524 74.857325 81.268473 95.688771 133.964279a355.67516 355.67516 0 0 0-66.98214-38.275508c-30.33334-55.499487-78.177725-96.961431-143.533155-124.395402z" fill="#DB8406" opacity=".884" p-id="6926"></path><path d="M425.815029 381.577561c-14.783915 17.912938-33.921669 27.481815-57.413263 28.706632a394.984107 394.984107 0 0 0-76.551016-9.568877c-12.372558-6.296321-26.725874-9.492326-43.059947-9.568878a5614.749123 5614.749123 0 0 0-157.886471 28.706632 62.590025 62.590025 0 0 0-28.706631-28.706632c-5.502104-34.974246 4.066773-63.680877 28.706631-86.119893a355.67516 355.67516 0 0 1 66.982139-38.275508c68.149542-14.793484 135.131682-10.009045 200.946418 14.353315 40.418937 21.931866 62.743127 55.422936 66.98214 100.473209z" fill="#8D3906" p-id="6927"></path><path d="M751.156848 266.751037a355.67516 355.67516 0 0 1 66.98214 38.275508c30.716095 21.951004 40.284972 50.657635 28.706631 86.119893-9.568877 3.186436-15.951318 9.568877-19.137754 19.137755a774.342237 774.342237 0 0 1-157.886472-19.137755 675.275653 675.275653 0 0 0-133.964278 28.706632c-37.529136-6.13365-51.882451-28.467409-43.059947-66.98214 3.253418-20.850583 12.822295-38.390335 28.706631-52.628823 71.048912-43.71063 147.599928-54.867941 229.653049-33.49107z" fill="#8E3A07" p-id="6928"></path><path d="M177.024225 285.888791c67.451014-7.482862 131.246718 3.684018 191.377541 33.49107 39.978768 31.864361 36.792332 52.600117-9.568877 62.1977a1069.877005 1069.877005 0 0 0-181.808664-9.568877c-1.339643-50.207898-22.06583-59.776775-62.1977-28.706631 0.440168 17.348374-1.148265 33.299692-4.784439 47.844385-25.931657-25.979501-22.745221-49.901694 9.568877-71.766577 18.48707-13.960992 37.624825-25.118302 57.413262-33.49107z" fill="#F7EFEB" p-id="6929"></path><path d="M598.054815 285.888791c81.909588-14.726502 153.676165 4.411252 215.299734 57.413262a80.703909 80.703909 0 0 1 4.784439 38.275508 2181.914482 2181.914482 0 0 0-210.515295-9.568877c-2.870663-42.830294-23.60642-55.595176-62.197701-38.275508-7.109676 18.563621-5.511673 36.112942 4.784438 52.628824a47.193702 47.193702 0 0 1-28.706631 4.784438 176.411817 176.411817 0 0 1 4.784439-57.413262c23.730815-17.357943 47.653008-33.299692 71.766577-47.844385z" fill="#F7F0ED" p-id="6930"></path><path d="M62.197701 391.146438a62.590025 62.590025 0 0 1 28.706631 28.706632c-11.989803 56.819992-8.803367 114.233254 9.568877 172.239786 13.559099 49.557214 39.069725 91.019158 76.551016 124.395402a900.230384 900.230384 0 0 0 66.98214 105.257648C144.0116 764.543159 81.813899 678.423265 57.413262 563.386225c-7.846479-59.145229-6.248477-116.558491 4.784439-172.239787z" fill="#DB8401" opacity=".882" p-id="6931"></path><path d="M492.797168 352.87093c-8.822505 38.51473 5.530811 60.848489 43.059947 66.98214a675.275653 675.275653 0 0 1 133.964278-28.706632 774.342237 774.342237 0 0 0 157.886472 19.137755c2.889801 47.174564-0.287066 93.420947-9.568877 138.748717a23.233233 23.233233 0 0 0 19.137754 4.784438v9.568877h-28.706631c-8.382336 1.243954-14.764777-1.942482-19.137755-9.568877 17.21441-32.687284 18.812412-67.766787 4.784439-105.257647-13.760045-11.654892-29.711363-18.037333-47.844385-19.137754-22.247639 12.630918-44.571829 25.386231-66.98214 38.275508a238.638225 238.638225 0 0 0-4.784438 66.982139c-54.839234-2.583597-80.359429 22.946167-76.551017 76.551017-27.749743-0.880337-43.701061 11.874976-47.844385 38.275508-37.92146-45.232082-47.490337-96.262903-28.706631-153.102033a47.193702 47.193702 0 0 0-28.706631 4.784439c-2.430495 63.173726-32.735128 83.899914-90.904332 62.1977a195.540002 195.540002 0 0 0-14.353316-52.628823 47.193702 47.193702 0 0 0-28.706631-4.784439c10.05689 30.199376 10.05689 58.906007 0 86.119893-5.990117-9.846374-13.960992-19.415252-23.922192-28.706631-19.606629 0.93775-37.146381 0.93775-52.628824 0-6.382441 0-9.568877-3.186436-9.568877-9.568877 29.883603-60.092548 17.12829-107.936933-38.275508-143.533155a94.387403 94.387403 0 0 1 57.413262-9.568877c25.768986 0.688959 51.289181 3.875395 76.551016 9.568877 23.491593-1.224816 42.629347-10.793693 57.413263-28.706632 9.530602-0.822923 17.511045 2.373082 23.922192 9.568877a240.657258 240.657258 0 0 1 43.059947-38.275508z" fill="#FCD861" p-id="6932"></path><path d="M846.845619 391.146438c9.454051 49.184028 12.640487 100.224418 9.568877 153.102033-3.272556 8.018719-9.645428 11.214724-19.137754 9.568877a23.233233 23.233233 0 0 1-19.137754-4.784438 527.88624 527.88624 0 0 0 9.568877-138.748717c3.186436-9.568877 9.568877-15.951318 19.137754-19.137755z" fill="#DB8100" opacity=".902" p-id="6933"></path><path d="M291.85075 400.715316a94.387403 94.387403 0 0 0-57.413262 9.568877c55.403798 35.596223 68.159111 83.440608 38.275508 143.533155-14.305471-4.679181-27.060784-11.052053-38.275508-19.137754-1.387487-69.804958-33.280554-93.727151-95.688771-71.766578-45.098118 54.140706-35.52924 90.808643 28.706631 110.042086v28.706632a205.204568 205.204568 0 0 1-66.982139-9.568878c-18.372244-58.006533-21.55868-115.419795-9.568877-172.239786a5614.749123 5614.749123 0 0 1 157.886471-28.706632c16.334073 0.076551 30.687389 3.272556 43.059947 9.568878z" fill="#FBCD63" p-id="6934"></path><path d="M234.437488 534.679594c-26.563203 5.645637-48.896962 18.391382-66.98214 38.275508-64.235872-19.233443-73.804749-55.90138-28.706631-110.042086 62.408216-21.960573 94.301283 1.96162 95.688771 71.766578z" fill="#FFC37A" p-id="6935"></path><path d="M808.570111 563.386225c2.822819 21.38644-0.373186 40.524194-9.568878 57.413263v-47.844386a605.642935 605.642935 0 0 0-105.257647 19.137754l-19.137754-57.413262c-1.559727-22.553843 0.028707-44.878033 4.784438-66.982139 22.41031-12.889277 44.7345-25.64459 66.98214-38.275508 18.133022 1.100421 34.08434 7.482862 47.844385 19.137754 14.027974 37.49086 12.429971 72.570364-4.784439 105.257647 4.372977 7.626395 10.755418 10.812831 19.137755 9.568877z" fill="#FFC277" p-id="6936"></path><path d="M550.21043 649.506119c0 12.755313-6.382441 19.137754-19.137754 19.137754-21.539542-15.750372-37.49086-36.486128-47.844385-62.197701-58.178772-20.094642-96.454281-2.55489-114.826525 52.628824h-19.137754a424.456248 424.456248 0 0 0-9.568877-19.137754 153.733579 153.733579 0 0 0 19.137754-47.844386c10.05689-27.213886 10.05689-55.920517 0-86.119893a47.193702 47.193702 0 0 1 28.706631 4.784439 195.540002 195.540002 0 0 1 14.353316 52.628823c58.169204 21.702213 88.473837 0.976025 90.904332-62.1977a47.193702 47.193702 0 0 1 28.706631-4.784439c-18.783706 56.83913-9.214829 107.869951 28.706631 153.102033z" fill="#8D3802" p-id="6937"></path><path d="M674.605832 534.679594l19.137754 57.413262a783.805857 783.805857 0 0 0-95.688771 19.137755c-3.808413-53.604849 21.711782-79.134613 76.551017-76.551017z" fill="#FFB751" p-id="6938"></path><path d="M234.437488 534.679594c11.214724 8.085701 23.970037 14.458573 38.275508 19.137754 0 6.382441 3.186436 9.568877 9.568877 9.568877 17.511045 38.198957 7.942168 68.494022-28.706631 90.904332-26.094328 7.827341-51.614523 6.238908-76.551017-4.784438a87.134194 87.134194 0 0 1-9.568877-47.844385v-28.706632c18.085178-19.884127 40.418937-32.629871 66.98214-38.275508z" fill="#FFB851" p-id="6939"></path><path d="M808.570111 563.386225h28.706631a1806.642262 1806.642262 0 0 1-19.137754 114.826525c-13.453841-4.526079-19.836282-14.094956-19.137755-28.706631v-28.706631c9.195691-16.889068 12.391696-36.026822 9.568878-57.413263z" fill="#F5F5ED" p-id="6940"></path><path d="M856.414496 544.248471c12.219456 50.561946 9.03302 101.602336-9.568877 153.102033-14.611675 0.698528-24.180552-5.683913-28.706631-19.137754a1806.642262 1806.642262 0 0 0 19.137754-114.826525v-9.568877c9.492326 1.645847 15.865198-1.550158 19.137754-9.568877z" fill="#4A790F" opacity=".919" p-id="6941"></path><path d="M799.001233 620.799488v28.706631c-94.100337-17.922507-154.700035 20.353001-181.808663 114.826524a448.89516 448.89516 0 0 1 28.706631 66.98214c-150.260076 70.503486-279.439916 41.796855-387.539521-86.119894a223.978705 223.978705 0 0 1-23.922192-57.413262 897.417134 897.417134 0 0 0 114.826524-28.706631h19.137754c26.917251-10.669298 49.25101-2.698423 66.98214 23.922192l38.275508 4.784439c22.802634 1.330074 41.940388-5.052367 57.413262-19.137754 12.755313 0 19.137754-6.382441 19.137754-19.137754 4.143324-26.400532 20.094642-39.155845 47.844385-38.275508a783.805857 783.805857 0 0 1 95.688771-19.137755 605.642935 605.642935 0 0 1 105.257647-19.137754v47.844386z" fill="#FD4539" p-id="6942"></path><path d="M358.832889 592.092856a153.733579 153.733579 0 0 1-19.137754 47.844386c3.473502 6.535543 6.659938 12.917984 9.568877 19.137754a897.417134 897.417134 0 0 1-114.826524 28.706631c-12.35342-2.267824-21.922297 0.918612-28.706631 9.568877-16.066145-2.057309-25.635022 4.325132-28.706632 19.137754-37.481291-33.376243-62.991918-74.838187-76.551016-124.395402a205.204568 205.204568 0 0 0 66.982139 9.568878 87.134194 87.134194 0 0 0 9.568877 47.844385c24.936494 11.023346 50.456689 12.61178 76.551017 4.784438 36.648799-22.41031 46.217676-52.705375 28.706631-90.904332 15.482443 0.93775 33.022195 0.93775 52.628824 0 9.961201 9.29138 17.932076 18.860257 23.922192 28.706631z" fill="#FDD44A" p-id="6943"></path><path d="M531.072676 668.643873c-15.472874 14.085387-34.610628 20.467828-57.413262 19.137754l-38.275508-4.784439c-17.731129-26.620616-40.064888-34.591491-66.98214-23.922192 18.372244-55.183714 56.647752-72.723466 114.826525-52.628824 10.353525 25.711573 26.304843 46.447329 47.844385 62.197701z" fill="#FBD24D" p-id="6944"></path><path d="M799.001233 649.506119c-0.698528 14.611675 5.683913 24.180552 19.137755 28.706631 4.526079 13.453841 14.094956 19.836282 28.706631 19.137754 32.017463 130.643878-19.013359 191.253146-153.102033 181.808664a62.590025 62.590025 0 0 0-28.706631-28.706631c-3.186436-9.568877-9.568877-15.951318-19.137754-19.137754a448.89516 448.89516 0 0 0-28.706631-66.98214c27.108629-94.473523 87.708327-132.749031 181.808663-114.826524z" fill="#DB8107" opacity=".953" p-id="6945"></path><path d="M205.730857 697.350504c67.431877 146.98752 182.258401 212.381226 344.479573 196.16198 42.600641-5.741326 80.876149-20.094642 114.826525-43.059947a62.590025 62.590025 0 0 1 28.706631 28.706631c-123.199292 62.102012-247.594694 63.700015-373.186205 4.784438a755.874305 755.874305 0 0 1-76.551016-62.1977 900.230384 900.230384 0 0 1-66.98214-105.257648c3.07161-14.812622 12.640487-21.195063 28.706632-19.137754z" fill="#4B7B13" opacity=".933" p-id="6946"></path><path d="M234.437488 687.781627a223.978705 223.978705 0 0 0 23.922192 57.413262c108.099604 127.916748 237.279444 156.62338 387.539521 86.119894 9.568877 3.186436 15.951318 9.568877 19.137754 19.137754-33.950376 22.965305-72.225884 37.31862-114.826525 43.059947-162.221173 16.219247-277.047697-49.174459-344.479573-196.16198 6.784334-8.650265 16.353211-11.836701 28.706631-9.568877z" fill="#F7F2EA" p-id="6947"></path><path d="M712.88134 678.21275c81.392868-3.157729 118.079943 35.117779 110.042086 114.826524-22.515568 47.136288-59.193073 64.685609-110.042086 52.628824-76.024728-55.786553-76.024728-111.611382 0-167.455348z" fill="#FEDB5D" p-id="6948"></path><path d="M425.815029 773.90152c17.578027 1.339643 20.764463 7.712515 9.568877 19.137754-7.626395-4.372977-10.812831-10.755418-9.568877-19.137754z" fill="#863632" p-id="6949"></path><path d="M550.21043 773.90152c17.578027 1.339643 20.764463 7.712515 9.568877 19.137754-7.626395-4.372977-10.812831-10.755418-9.568877-19.137754z" fill="#903832" p-id="6950"></path></svg>