<?xml version="1.0" standalone="no"?><!DOCTYPE svg PUBLIC "-//W3C//DTD SVG 1.1//EN" "http://www.w3.org/Graphics/SVG/1.1/DTD/svg11.dtd"><svg t="1729065620709" class="icon" viewBox="0 0 1026 1024" version="1.1" xmlns="http://www.w3.org/2000/svg" p-id="10927" xmlns:xlink="http://www.w3.org/1999/xlink" width="200.390625" height="200"><path d="M16.026522 827.98592L1.741722 623.13472A720.6912 720.6912 0 0 1 43.060122 327.68l17.03936-47.07328A145.98144 145.98144 0 0 1 197.346202 184.32h0.768a222.5664 222.5664 0 0 1 168.192 76.8l9.55392 11.02848A190.6176 190.6176 0 0 0 519.906202 337.92a181.0944 181.0944 0 0 0 141.4144-67.96288l7.0656-8.83712A204.63616 204.63616 0 0 1 828.181402 184.32h4.0448c61.3376 0 115.95776 38.76864 136.21248 96.6656L984.781722 327.68a752.0256 752.0256 0 0 1 40.73472 294.94272l-13.07648 210.42176A105.32864 105.32864 0 0 1 907.316122 931.84a207.8208 207.8208 0 0 1-161.36192-76.86144l-61.00992-75.17184A225.7408 225.7408 0 0 0 509.666202 696.32a210.69824 210.69824 0 0 0-170.60864 87.06048l-46.4896 64.16384A204.00128 204.00128 0 0 1 127.376282 931.84 111.616 111.616 0 0 1 16.026522 827.98592z" fill="#FFC53D" p-id="10928"></path><path d="M198.114202 184.32a222.5664 222.5664 0 0 1 168.192 76.8l9.55392 11.02848A190.6176 190.6176 0 0 0 519.906202 337.92a181.0944 181.0944 0 0 0 141.4144-67.96288l7.0656-8.83712A204.63616 204.63616 0 0 1 828.181402 184.32h4.0448c11.10016 0 21.97504 1.26976 32.4608 3.6864l-69.75488 81.6128a370.3808 370.3808 0 0 1-563.0976 0l-69.3248-81.1008c11.23328-2.74432 22.91712-4.1984 34.83648-4.1984h0.768zM513.383322 624.64a341.9136 341.9136 0 0 1 273.2544 136.3968L914.893722 931.57376c-2.49856 0.17408-5.02784 0.26624-7.5776 0.26624a207.8208 207.8208 0 0 1-161.36192-76.86144l-61.00992-75.17184A225.7408 225.7408 0 0 0 509.666202 696.32a210.69824 210.69824 0 0 0-170.60864 87.06048l-46.4896 64.16384A204.00128 204.00128 0 0 1 127.376282 931.84c-2.57024 0-5.12-0.08192-7.64928-0.256l122.6752-168.86784A334.94016 334.94016 0 0 1 513.383322 624.64z" fill="#FAAD14" p-id="10929"></path><path d="M800.103322 460.8m-40.96 0a40.96 40.96 0 1 0 81.92 0 40.96 40.96 0 1 0-81.92 0Z" fill="#FAAD14" p-id="10930"></path><path d="M800.103322 604.16m-40.96 0a40.96 40.96 0 1 0 81.92 0 40.96 40.96 0 1 0-81.92 0Z" fill="#FAAD14" p-id="10931"></path><path d="M728.423322 532.48m0 40.96a40.96 40.96 0 1 0 0-81.92 40.96 40.96 0 1 0 0 81.92Z" fill="#FAAD14" p-id="10932"></path><path d="M871.783322 532.48m0 40.96a40.96 40.96 0 1 0 0-81.92 40.96 40.96 0 1 0 0 81.92Z" fill="#FAAD14" p-id="10933"></path><path d="M800.103322 440.32m-40.96 0a40.96 40.96 0 1 0 81.92 0 40.96 40.96 0 1 0-81.92 0Z" fill="#FFF1B8" p-id="10934"></path><path d="M800.103322 583.68m-40.96 0a40.96 40.96 0 1 0 81.92 0 40.96 40.96 0 1 0-81.92 0Z" fill="#FFF1B8" p-id="10935"></path><path d="M728.423322 512m0 40.96a40.96 40.96 0 1 0 0-81.92 40.96 40.96 0 1 0 0 81.92Z" fill="#FFF1B8" p-id="10936"></path><path d="M871.783322 512m0 40.96a40.96 40.96 0 1 0 0-81.92 40.96 40.96 0 1 0 0 81.92Z" fill="#FFF1B8" p-id="10937"></path><path d="M257.383322 430.08a20.48 20.48 0 0 1 20.48 20.48v51.2h51.2a20.48 20.48 0 0 1 20.48 20.48v40.96a20.48 20.48 0 0 1-20.48 20.48h-51.2v51.2a20.48 20.48 0 0 1-20.48 20.48h-40.96a20.48 20.48 0 0 1-20.48-20.48v-51.2h-51.2a20.48 20.48 0 0 1-20.48-20.48v-40.96a20.48 20.48 0 0 1 20.48-20.48h51.2v-51.2a20.48 20.48 0 0 1 20.48-20.48h40.96z" fill="#FAAD14" p-id="10938"></path><path d="M257.383322 399.36a20.48 20.48 0 0 1 20.48 20.48v51.2h51.2a20.48 20.48 0 0 1 20.48 20.48v40.96a20.48 20.48 0 0 1-20.48 20.48h-51.2v51.2a20.48 20.48 0 0 1-20.48 20.48h-40.96a20.48 20.48 0 0 1-20.48-20.48v-51.2h-51.2a20.48 20.48 0 0 1-20.48-20.48v-40.96a20.48 20.48 0 0 1 20.48-20.48h51.2v-51.2a20.48 20.48 0 0 1 20.48-20.48h40.96z" fill="#FFF1B8" p-id="10939"></path></svg>