<?xml version="1.0" standalone="no"?><!DOCTYPE svg PUBLIC "-//W3C//DTD SVG 1.1//EN" "http://www.w3.org/Graphics/SVG/1.1/DTD/svg11.dtd"><svg t="1735314218698" class="icon" viewBox="0 0 1024 1024" version="1.1" xmlns="http://www.w3.org/2000/svg" p-id="4308" xmlns:xlink="http://www.w3.org/1999/xlink" width="200" height="200"><path d="M371.6096 772.1984c8.192-1.024 72.192-14.336 250.88-51.712 46.592-9.728 88.576-35.84 118.784-72.704 29.696-36.864 46.592-83.456 46.592-131.072v-220.16c0-1.024-0.512-1.536-1.536-1.536h-438.272c-0.512 0-1.536 0.512-1.536 1.536-19.456 107.008-59.904 206.848-120.832 296.96 0 0.512-0.512 0.512-0.512 1.024 0 1.024 0.512 1.536 1.536 1.536h96.768v128c0 26.112 21.504 48.128 48.128 48.128m0.512 29.184c-42.496 0-77.312-34.816-77.312-77.312v-99.328h-68.096c-16.896 0-30.208-13.824-30.208-30.72 0-6.144 2.048-11.776 5.12-16.896 58.368-86.016 98.304-183.296 116.736-285.696 2.56-14.336 15.36-25.088 30.208-25.088h437.76c16.896 0 30.72 13.824 30.72 30.72v220.16c0 112.128-78.336 208.896-187.904 231.936-246.272 51.2-251.904 52.224-257.024 52.224z" fill="#1041A4" p-id="4309"></path><path d="M951.09632 553.94304c0 17.92-8.704 35.328-23.04 46.08-21.504 17.408-52.736 17.408-74.24 0-17.92-14.336-36.352-27.648-55.296-40.448-152.064-103.936-329.728-164.864-513.536-175.616-20.992-1.024-41.984-2.048-62.976-2.048h-3.072c-32.768 0-59.904-26.624-59.904-59.904 0-22.528 12.8-43.008 32.768-53.248 38.912-19.968 80.384-35.328 122.88-45.568 58.88-76.8 150.016-121.344 246.784-121.344 172.032 0 311.296 139.264 311.808 311.296 28.672 35.328 52.736 73.728 71.68 114.688 4.096 8.192 6.144 16.896 6.144 26.112z" fill="#FAE339" p-id="4310"></path><path d="M891.19232 627.67104c-16.384 0-32.768-5.632-46.08-16.384-16.896-13.312-35.328-26.624-54.272-39.936-150.016-102.4-325.12-162.304-506.368-173.056-20.48-1.024-41.472-2.048-61.952-2.048h-3.072c-40.96 0-74.24-33.28-74.24-74.24 0-28.16 15.36-53.248 40.448-66.048 38.4-19.968 79.36-34.816 121.344-45.568 61.44-77.312 156.16-122.88 254.976-122.88 177.664 0 323.072 143.36 326.144 320.512 27.648 34.816 51.712 73.216 70.656 113.664 4.608 9.728 7.168 20.992 7.168 31.744v18.432l-2.56-0.512c-4.096 15.872-12.8 29.696-26.112 39.936-13.312 10.752-29.696 16.384-46.08 16.384z m-672.256-260.096h3.072c20.992 0 42.496 0.512 63.488 2.048 186.368 11.264 366.592 72.704 521.216 178.176 19.968 13.312 38.4 27.648 56.32 40.96 16.384 13.312 39.936 13.312 56.32 0 11.264-8.704 17.408-21.504 17.408-34.816v-2.048c0-6.144-1.536-11.776-4.096-17.408-18.432-39.936-41.984-77.824-70.144-111.616l-3.072-4.096v-5.12c-0.512-163.84-133.632-296.448-297.472-296.448-91.648 0-179.2 43.008-235.008 115.712l-3.072 4.096-5.12 1.024c-41.472 9.728-81.92 24.576-119.808 44.032-15.36 7.68-24.576 23.04-24.576 40.448-0.512 24.576 19.456 45.056 44.544 45.056z" fill="#1041A4" p-id="4311"></path><path d="M268.26752 833.71008v60.416-56.832-3.584z" p-id="4312"></path><path d="M268.26752 833.71008V900.27008v-66.56z" fill="#1041A4" p-id="4313"></path><path d="M336.18432 658.39104c0 16.896-13.824 30.72-30.72 30.72-20.48 0-37.376 16.896-37.376 37.376v166.4c0 3.584-0.512 7.168-1.024 10.752-9.216 53.76-60.416 89.6-113.664 80.384-47.104-8.192-81.408-49.152-81.408-96.768v-56.832c0-16.896 13.824-30.72 30.72-30.72h105.472v-73.216c0-54.272 44.032-98.304 98.304-98.304 15.872 0 29.696 13.312 29.696 30.208z" fill="#F34947" p-id="4314"></path><path d="M169.78432 998.35904c-6.144 0-12.8-0.512-18.944-1.536-53.76-9.216-92.16-55.296-92.16-109.568v-56.832c0-24.064 19.456-43.52 43.52-43.52h92.16v-59.904c0-61.44 50.176-111.616 111.616-111.616 24.064 0 43.52 19.456 43.52 43.52s-19.456 43.52-43.52 43.52c-13.312 0-24.576 11.264-24.576 24.576v166.4c-0.512 4.608-0.512 8.704-1.536 12.8-9.728 53.76-56.832 92.16-110.08 92.16z m-68.096-185.856c-9.728 0-17.408 7.68-17.408 17.408v56.832c0 41.472 29.696 77.312 70.656 83.968 22.528 4.096 45.056-1.024 64-14.336 18.432-13.312 31.232-32.768 34.816-55.296 0.512-3.072 1.024-6.144 1.024-9.216v-165.888c0-27.648 22.528-50.688 50.688-50.688 9.728 0 17.408-7.68 17.408-17.408 0-4.608-2.048-9.216-5.12-12.288-3.072-3.072-7.68-5.12-12.288-5.12-47.104 0-85.504 38.4-85.504 85.504v86.016h-118.272z" fill="#1041A4" p-id="4315"></path><path d="M804.15232 628.18304v109.056c-75.776-4.608-130.56 70.656-189.952 146.432-44.544 59.904-115.712 93.696-189.952 90.112l17.92-29.696 32.256-54.784 15.36-26.112v-149.504c0-20.48 16.896-37.376 37.376-37.376l276.992-48.128z" fill="#3FDF9F" p-id="4316"></path><path d="M434.48832 989.14304c-3.584 0-7.68 0-11.264-0.512l-24.064-1.024 76.288-128v-145.408c0-28.672 23.04-51.712 51.712-51.712l291.328-51.712v141.824l-15.36-1.024c-65.024-3.584-116.224 61.952-170.496 131.584l-7.168 9.728c-44.544 60.416-115.712 96.256-190.976 96.256z m355.328-344.064l-260.096 45.568c-15.36 0-25.6 10.752-25.6 23.04v153.6l-54.784 91.648c60.416-4.096 116.224-34.816 153.088-83.968l7.68-9.728c55.296-70.656 107.52-138.24 179.712-142.848v-77.312z" fill="#1041A4" p-id="4317"></path><path d="M847.16032 156.63104c-6.656 15.36-24.576 22.528-39.936 15.872-43.008-20.48-92.16-20.992-135.68-2.048-8.704 10.752-24.064 12.8-34.816 4.096-1.536-1.024-3.072-2.56-4.096-4.096l-4.608-9.216c-22.528-37.376-59.392-64.512-101.888-75.776-16.384-4.608-25.6-21.504-20.48-37.888v-0.512c5.632-15.872 22.528-24.576 38.912-19.456 47.616 13.312 89.6 41.472 120.32 80.384 54.272-17.408 113.152-14.336 164.864 8.704 15.872 5.632 23.552 24.064 17.408 39.936z" fill="#1041A4" p-id="4318"></path><path d="M632.39168 170.15808c-2.048-2.56-3.584-6.144-4.608-9.216 1.536 3.072 3.584 6.144 4.608 9.216z" p-id="4319"></path><path d="M632.39168 170.15808c-2.048-2.56-3.584-6.144-4.608-9.728 1.536 3.584 3.584 6.656 4.608 9.728z" fill="#1041A4" p-id="4320"></path></svg>