<?xml version="1.0" standalone="no"?><!DOCTYPE svg PUBLIC "-//W3C//DTD SVG 1.1//EN" "http://www.w3.org/Graphics/SVG/1.1/DTD/svg11.dtd"><svg t="1729065579546" class="icon" viewBox="0 0 1024 1024" version="1.1" xmlns="http://www.w3.org/2000/svg" p-id="9839" xmlns:xlink="http://www.w3.org/1999/xlink" width="200" height="200"><path d="M897.9968 305.9712L773.12 375.7568V309.8624c0-84.8384-68.7616-153.6-153.6-153.6H190.2592c-84.8384 0-153.6 68.7616-153.6 153.6v413.7984c0 84.8384 68.7616 153.6 153.6 153.6H619.52c84.8384 0 153.6-68.7616 153.6-153.6v-60.7744l124.928 69.7856c40.3456 22.528 90.8288-5.632 90.8288-50.7392V356.7104c-0.0512-45.056-43.2128-77.2608-90.88-50.7392z" fill="#8C7BFD" p-id="9840"></path><path d="M347.3408 699.9552c-17.9712 0-35.9936-4.7104-52.3776-14.1824-32.8192-18.944-52.3776-52.8384-52.3776-90.7264V443.5968c0-37.888 19.5584-71.7824 52.3776-90.7264 32.8192-18.944 71.936-18.944 104.7552 0l131.1744 75.7248c32.768 18.944 52.3776 52.8384 52.3776 90.7264 0 37.888-19.5584 71.7824-52.3776 90.7264l-131.1744 75.7248c-16.384 9.472-34.3552 14.1824-52.3776 14.1824z m5.3248-247.1936v133.12l115.3024-66.56-115.3024-66.56z m123.2384 71.168z" fill="#FFE37B" p-id="9841"></path></svg>